<svg width="12" height="13" viewBox="0 0 12 13" fill="none" xmlns="http://www.w3.org/2000/svg">
<path d="M3.75 11.75C4.16421 11.75 4.5 11.4142 4.5 11C4.5 10.5858 4.16421 10.25 3.75 10.25C3.33579 10.25 3 10.5858 3 11C3 11.4142 3.33579 11.75 3.75 11.75Z" fill="#FFFDF6"/>
<path d="M9 11.75C9.41421 11.75 9.75 11.4142 9.75 11C9.75 10.5858 9.41421 10.25 9 10.25C8.58579 10.25 8.25 10.5858 8.25 11C8.25 11.4142 8.58579 11.75 9 11.75Z" fill="#FFFDF6"/>
<path d="M1.8675 1.5515C1.85051 1.46652 1.80462 1.39005 1.73762 1.33508C1.67063 1.28012 1.58666 1.25005 1.5 1.25H0V2H1.1925L2.6325 9.1985C2.64949 9.28348 2.69538 9.35995 2.76238 9.41492C2.82937 9.46988 2.91334 9.49995 3 9.5H9.75V8.75H3.3075L3.0075 7.25H9.75C9.83531 7.24999 9.91806 7.22089 9.9846 7.1675C10.0511 7.11412 10.0975 7.03965 10.116 6.95637L10.9665 3.125H10.1989L9.44925 6.5H2.8575L1.8675 1.5515Z" fill="#FFFDF6"/>
<path d="M6.75 2.75V1.25H6V2.75H4.5V3.5H6V5H6.75V3.5H8.25V2.75H6.75Z" fill="#FFFDF6"/>
</svg>
