<svg width="12" height="13" viewBox="0 0 12 13" fill="none" xmlns="http://www.w3.org/2000/svg">
<path d="M5.25 8.53025L3.375 6.65487L3.90488 6.125L5.25 7.46975L8.09437 4.625L8.625 5.15562L5.25 8.53025Z" fill="white"/>
<path d="M6 1.25C4.96165 1.25 3.94662 1.55791 3.08326 2.13478C2.2199 2.71166 1.54699 3.5316 1.14963 4.49091C0.752275 5.45022 0.648307 6.50582 0.85088 7.52422C1.05345 8.54262 1.55347 9.47808 2.28769 10.2123C3.02192 10.9465 3.95738 11.4466 4.97578 11.6491C5.99418 11.8517 7.04978 11.7477 8.00909 11.3504C8.9684 10.953 9.78834 10.2801 10.3652 9.41674C10.9421 8.55339 11.25 7.53835 11.25 6.5C11.25 5.10761 10.6969 3.77226 9.71231 2.78769C8.72775 1.80312 7.39239 1.25 6 1.25ZM6 11C5.10999 11 4.23996 10.7361 3.49994 10.2416C2.75992 9.74715 2.18314 9.04434 1.84254 8.22208C1.50195 7.39981 1.41284 6.49501 1.58647 5.62209C1.7601 4.74918 2.18869 3.94736 2.81802 3.31802C3.44736 2.68868 4.24918 2.2601 5.1221 2.08647C5.99501 1.91283 6.89981 2.00195 7.72208 2.34254C8.54434 2.68314 9.24715 3.25991 9.74162 3.99993C10.2361 4.73996 10.5 5.60998 10.5 6.5C10.5 7.69347 10.0259 8.83807 9.18198 9.68198C8.33807 10.5259 7.19348 11 6 11Z" fill="white"/>
</svg>
