<svg width="167" height="142" viewBox="0 0 167 142" fill="none" xmlns="http://www.w3.org/2000/svg">
<path d="M131.755 -42.7986L143.622 -24.0174L106.059 -0.284368L82.3264 -37.8468L101.108 -49.7133L131.755 -42.7986Z" fill="#5E7862"/>
<path d="M25.9828 -2.24722L71.9543 8.12481L82.3264 -37.8468L59.3406 -43.0328L31.1688 -25.233L25.9828 -2.24722Z" fill="#5E7862"/>
<path d="M12.1534 59.0482L49.7158 35.3152L25.9828 -2.24722L7.20157 9.6193L0.286884 40.267L12.1534 59.0482Z" fill="#5E7862"/>
<path d="M47.753 115.392L24.7672 110.206L6.96739 82.034L12.1534 59.0482L58.125 69.4202L47.753 115.392Z" fill="#5E7862"/>
<path d="M109.048 129.221L90.2672 141.088L59.6195 134.173L47.753 115.392L85.3154 91.6588L109.048 129.221Z" fill="#5E7862"/>
<path d="M165.392 93.6216L160.206 116.607L132.034 134.407L109.048 129.221L119.42 83.2496L165.392 93.6216Z" fill="#5E7862"/>
<path d="M179.221 32.3262L191.088 51.1074L184.173 81.7551L165.392 93.6216L141.659 56.0592L179.221 32.3262Z" fill="#5E7862"/>
<path d="M179.221 32.3262L184.407 9.34041L166.608 -18.8314L143.622 -24.0174L133.25 21.9542L179.221 32.3262Z" fill="#5E7862"/>
</svg>
