<svg width="177" height="177" viewBox="0 0 177 177" fill="none" xmlns="http://www.w3.org/2000/svg">
<path d="M72.685 153.059C70.0887 153.737 67.5681 154.678 65.1625 155.866C65.1229 155.881 65.0868 155.904 65.0567 155.934C65.0266 155.964 65.003 156 64.9876 156.04C64.9721 156.079 64.9652 156.121 64.9671 156.164C64.969 156.206 64.9798 156.247 64.9989 156.285C65.0144 156.36 65.0563 156.427 65.1169 156.475C65.1775 156.522 65.2529 156.547 65.3299 156.543H86.0858V151.876C81.5841 151.521 77.0548 151.921 72.685 153.059Z" fill="black"/>
<path d="M100.474 155.872C96.2036 153.719 91.5679 152.382 86.8066 151.93V156.543H100.292C100.37 156.541 100.445 156.514 100.506 156.466C100.568 156.418 100.612 156.351 100.632 156.276C100.652 156.201 100.648 156.12 100.62 156.048C100.591 155.975 100.54 155.914 100.474 155.872Z" fill="black"/>
<path d="M91.4282 139.486H86.4465C86.3516 139.484 86.261 139.445 86.1938 139.379C86.1267 139.311 86.0882 139.22 86.0863 139.126C85.7916 126.779 85.658 107.756 87.243 95.518C87.1271 94.3923 86.4607 87.7301 86.2465 86.7274C86.2507 86.7773 86.2445 86.8273 86.2284 86.8747C86.2122 86.922 86.1864 86.9655 86.1527 87.0024C86.119 87.0392 86.078 87.0688 86.0322 87.089C85.9866 87.1094 85.9372 87.12 85.8872 87.1204H77.3992C75.4654 90.0302 73.3206 92.794 70.982 95.3897C67.45 99.2519 63.2427 101.85 58.1221 102.41C54.9096 102.787 51.658 102.181 48.7976 100.671C45.9373 99.1607 43.603 96.8172 42.1036 93.9507C41.8151 95.3225 30.357 149.777 30.2552 150.211C30.2418 150.264 30.2405 150.32 30.2516 150.374C30.2626 150.428 30.2857 150.478 30.319 150.523C30.3523 150.566 30.3951 150.602 30.4441 150.627C30.4931 150.652 30.5472 150.666 30.6021 150.667H56.0715C56.1504 150.666 56.2268 150.64 56.2893 150.592C56.3519 150.544 56.3972 150.477 56.4185 150.401C57.5415 144.649 63.9631 111.142 64.4091 108.851C64.6835 113.614 66.9641 147.137 67.2261 150.306C67.2281 150.4 67.2667 150.491 67.3339 150.558C67.401 150.625 67.4914 150.664 67.5863 150.666H86.0828V143.512C86.0828 143.416 86.1207 143.325 86.1883 143.257C86.2559 143.189 86.3475 143.151 86.443 143.151C86.5386 143.151 86.6301 143.189 86.6977 143.257C86.7653 143.325 86.8032 143.416 86.8032 143.512V150.667H92.061C92.1565 150.667 92.2477 150.628 92.3149 150.561C92.3822 150.493 92.4203 150.402 92.4203 150.307C92.1866 147.707 91.545 140.739 91.4282 139.486ZM46.2985 124.41C45.9126 123.296 45.5268 122.181 45.1409 121.066C44.9887 120.624 45.6852 120.44 45.8356 120.875L46.9932 124.218C47.1454 124.658 46.4498 124.845 46.2985 124.41ZM74.53 107.759L81.9958 109.285C82.4507 109.374 82.2569 110.072 81.8047 109.98L74.3397 108.454C73.8831 108.361 74.0742 107.667 74.5291 107.759H74.53ZM74.6654 124.41L73.5069 121.068C73.3547 120.626 74.0512 120.441 74.2017 120.877L75.3592 124.219C75.5115 124.658 74.8158 124.845 74.6645 124.41H74.6654ZM82.8021 129.424C82.4976 129.513 77.6567 130.856 75.5292 131.399C75.437 131.424 75.3386 131.412 75.2556 131.364C75.1725 131.317 75.1116 131.239 75.0862 131.147C75.0609 131.054 75.0732 130.956 75.1204 130.873C75.1676 130.791 75.2459 130.73 75.338 130.704C75.338 130.704 80.4843 129.272 82.6109 128.729C82.7031 128.704 82.8015 128.716 82.8846 128.764C82.9677 128.811 83.0286 128.889 83.0539 128.982C83.0793 129.074 83.067 129.172 83.0197 129.255C82.9725 129.338 82.8942 129.399 82.8021 129.424ZM84.765 94.6065C84.488 94.5242 80.0515 93.2277 78.1178 92.6383C78.0257 92.6126 77.9474 92.5524 77.9002 92.4692C77.853 92.386 77.8407 92.2878 77.866 92.1958C77.8914 92.1028 77.9523 92.025 78.0354 91.978C78.1184 91.9303 78.2168 91.9179 78.3089 91.9435C78.5868 92.0258 83.0233 93.3224 84.9571 93.9118C85.0492 93.9374 85.1274 93.9985 85.1746 94.0817C85.2218 94.1649 85.2339 94.2631 85.2084 94.3552C85.183 94.4472 85.1219 94.526 85.0388 94.5729C84.9556 94.6198 84.8571 94.6322 84.765 94.6065Z" fill="#FFFDF6"/>
<path d="M86.8063 143.512C86.8063 143.416 86.7684 143.325 86.7008 143.258C86.6333 143.189 86.5417 143.151 86.4461 143.151C86.3506 143.151 86.259 143.189 86.1915 143.258C86.1239 143.325 86.0859 143.416 86.0859 143.512V162.957C86.0859 163.052 86.1239 163.144 86.1915 163.212C86.259 163.28 86.3506 163.317 86.4461 163.317C86.5417 163.317 86.6333 163.28 86.7008 163.212C86.7684 163.144 86.8063 163.052 86.8063 162.957C86.8762 158.87 86.8815 147.913 86.8063 143.512Z" fill="#47654D"/>
<path d="M123.232 40.6509C119.515 26.69 103.666 15.1629 88.125 13.6584C84.072 13.2785 79.9858 13.8285 76.1775 15.2664C76.089 15.2992 74.9049 15.7514 74.8164 15.8231C74.8966 15.7852 74.988 15.7784 75.073 15.8039C75.1579 15.8294 75.2304 15.8854 75.2766 15.9612C75.9988 17.3241 76.6333 18.7268 77.3333 20.1012C79.7901 24.928 81.6752 30.0211 83.8549 34.9736C83.88 35.02 83.8949 35.0712 83.8985 35.1239C83.9021 35.1765 83.8942 35.2293 83.8754 35.2787C83.8567 35.328 83.8276 35.3727 83.79 35.4096C83.7523 35.4467 83.7071 35.4751 83.6576 35.4931C83.9107 35.4515 85.5161 34.9922 88.3295 34.5108C91.318 33.9992 93.7279 34.1302 96.3953 35.8533C98.1051 36.9641 99.6184 38.3522 100.872 39.9606C102.696 42.2914 104.275 44.8032 105.586 47.4565H109.183C108.288 46.9875 107.448 46.4206 106.679 45.7662C106.093 45.3047 105.633 44.7034 105.34 44.0174C105.163 43.5873 105.865 43.3979 106.034 43.8254C106.326 44.4466 106.774 44.9812 107.335 45.3768C107.894 45.8357 108.489 46.2499 109.114 46.6158C109.793 46.9946 110.549 47.2157 111.326 47.2627C112.317 47.3362 113.185 47.4309 113.716 47.4486C113.8 47.4479 113.882 47.4685 113.955 47.5084C114.03 47.5484 114.092 47.6063 114.137 47.6769C114.499 48.2024 114.827 48.7501 115.12 49.3168C115.394 49.8646 115.559 50.4598 115.609 51.07C115.745 53.1152 114.812 55.3074 115.906 57.1765C116.601 58.3704 117.649 58.5518 118.959 58.1128C119.658 57.9011 120.296 57.5263 120.821 57.0193C121.347 56.5122 121.743 55.8875 121.98 55.1967C122.943 52.7109 123.477 50.0796 123.559 47.4149C123.564 47.3358 123.594 47.2605 123.645 47.2C123.696 47.1394 123.766 47.097 123.843 47.0787C123.92 47.0606 124 47.0678 124.073 47.0991C124.146 47.1305 124.206 47.1844 124.246 47.253C124.148 45.022 123.808 42.8083 123.232 40.6509ZM88.7754 17.0603H84.3036C84.208 17.0603 84.1164 17.0224 84.0489 16.9548C83.9813 16.8872 83.9434 16.7956 83.9434 16.7001C83.9434 16.6045 83.9813 16.5129 84.0489 16.4454C84.1164 16.3779 84.208 16.3399 84.3036 16.3399H88.7754C88.871 16.3399 88.963 16.3779 89.0303 16.4454C89.0976 16.5129 89.1356 16.6045 89.1356 16.7001C89.1356 16.7956 89.0976 16.8872 89.0303 16.9548C88.963 17.0224 88.871 17.0603 88.7754 17.0603Z" fill="#FFFDF6"/>
<path d="M158.857 102.817C158.768 97.0314 158.788 90.8691 156.254 85.5265C154.075 80.9245 150.288 77.65 145.219 77.6571C142.32 77.9164 138.737 80.0767 136.773 83.5928C134.394 87.8549 133.748 94.1711 133.507 99.0271C132.82 112.824 132.786 126.563 132.998 138.764H158.456C158.441 138.07 158.934 107.793 158.857 102.817Z" fill="#47654D"/>
<path d="M103.231 77.7033C101.215 78.2721 99.2596 79.0319 97.3896 79.9724C93.6779 81.9053 90.0627 86.363 88.7768 91.0798C88.1994 93.3657 87.8263 95.6986 87.6618 98.05C87.4468 100.478 87.2335 102.905 87.0954 105.338C86.5131 115.558 86.5184 129.376 86.7945 138.77H132.273C132.175 136.063 132.152 125.019 132.196 119.522C132.284 108.314 132.591 102.033 132.934 96.7385C133.094 94.018 133.493 91.317 134.126 88.6664C135.307 83.8372 137.555 79.8167 142.368 77.7033H103.231Z" fill="#47654D"/>
<path d="M132.228 47.6565C132.282 47.6799 132.329 47.7157 132.367 47.7611C132.405 47.8066 132.431 47.8604 132.444 47.918C132.457 47.9755 132.455 48.0353 132.44 48.0923C132.425 48.1494 132.397 48.2021 132.358 48.246C132.154 48.469 123.232 58.1402 122.07 59.3969C121.755 59.7386 121.247 59.2279 121.561 58.8872C130.452 49.2469 131.708 47.8477 131.964 47.6565C131.989 47.6388 132.062 47.6282 131.973 47.6229C131.741 47.6088 130.411 47.6282 124.269 47.6282C124.12 50.6452 123.286 56.1402 120.831 57.9633C118.811 59.4678 116.222 59.6828 115.09 57.103C114.268 55.2286 114.825 53.7489 114.896 51.7444C114.921 50.4306 114.456 49.1545 113.59 48.1654C113.59 48.1654 111.877 48.0318 111.051 47.9486C110.405 47.8857 109.773 47.7171 109.182 47.4495C103.225 47.4972 103.495 47.3751 103.316 47.6061C103.355 47.5662 103.402 47.5352 103.454 47.5154C103.507 47.4955 103.562 47.4871 103.618 47.4909C103.674 47.4947 103.728 47.5105 103.777 47.5372C103.825 47.5641 103.868 47.6011 103.901 47.6459C103.911 47.6583 118.838 68.4266 119.347 69.1364C119.396 69.1952 119.419 69.271 119.412 69.3469C119.405 69.4229 119.368 69.4929 119.309 69.5417C119.262 69.6355 112.962 77.1527 112.386 77.8253H132.463V47.9911C132.461 47.9182 132.438 47.8474 132.397 47.7878C132.354 47.7282 132.296 47.6825 132.228 47.6565Z" fill="#FFFDF6"/>
<path d="M103.23 47.9024C103.23 72.1965 103.205 77.1224 103.245 78.1287C103.259 78.0462 103.301 77.9712 103.364 77.9163C103.427 77.8614 103.507 77.8301 103.59 77.8278C103.606 77.8296 103.622 77.8296 103.638 77.8278H111.448C111.931 77.2676 116.65 71.5514 118.584 69.3026C118.519 69.2132 103.259 48.0201 103.23 47.9024Z" fill="#FFFDF6"/>
<path d="M132.126 143.512C132.037 148.532 132.06 161.597 132.085 163.108C132.085 163.204 132.123 163.296 132.19 163.363C132.257 163.431 132.35 163.468 132.445 163.468C132.541 163.468 132.632 163.431 132.7 163.363C132.767 163.296 132.805 163.204 132.805 163.108C132.894 158.088 132.846 143.512 132.846 143.512C132.846 143.416 132.808 143.325 132.741 143.258C132.673 143.189 132.581 143.151 132.486 143.151C132.39 143.151 132.298 143.189 132.231 143.258C132.164 143.325 132.126 143.416 132.126 143.512Z" fill="#47654D"/>
<path d="M158.205 142.666V162.957C158.21 163.05 158.249 163.136 158.317 163.2C158.384 163.264 158.472 163.299 158.564 163.299C158.657 163.299 158.746 163.264 158.813 163.2C158.88 163.136 158.92 163.05 158.925 162.957V142.666C158.92 142.574 158.88 142.488 158.813 142.424C158.746 142.36 158.657 142.324 158.564 142.324C158.472 142.324 158.384 142.36 158.317 142.424C158.249 142.488 158.21 142.574 158.205 142.666Z" fill="#47654D"/>
<path d="M159.594 103.829C159.56 100.98 159.491 98.1253 159.305 95.2818C159.138 92.1303 158.461 89.0275 157.3 86.0929C155.176 80.9077 150.974 76.9526 145.222 76.9367H132.464V77.7031H142.376C137.588 79.8059 135.352 83.6901 134.134 88.6664C133.501 91.317 133.102 94.018 132.941 96.7385C132.593 102.128 132.297 108.212 132.203 119.522C132.167 123.906 132.203 136.741 132.28 138.77H86.7975C86.6709 134.467 86.5807 127.559 86.6364 120.854C86.7382 108.641 87.2153 103.134 87.6649 98.05C88.2207 91.7603 89.1843 87.4938 93.5439 82.9166C95.3563 81.013 97.5503 79.4651 102.08 78.1173C102.45 78.0066 102.845 77.8075 103.23 77.7031V77.0101C96.2812 78.8226 92.7872 81.6458 89.9932 86.4195C88.5436 88.9195 87.6478 91.7019 87.3675 94.5782C85.6356 107.56 85.7825 126.098 86.0861 139.13C86.0878 139.225 86.1263 139.316 86.1935 139.383C86.2607 139.449 86.3513 139.488 86.4462 139.49H158.821C158.915 139.488 159.006 139.449 159.074 139.383C159.14 139.316 159.179 139.225 159.181 139.13C159.226 137.096 159.654 108.921 159.594 103.829ZM158.459 138.768H133.001C132.781 126.936 132.824 112.732 133.51 99.0315C133.75 94.1879 134.395 87.8567 136.776 83.5972C138.74 80.0811 142.323 77.9208 145.222 77.6615C150.29 77.6571 154.078 80.936 156.257 85.5309C158.79 90.8771 158.773 97.0358 158.86 102.821C159.092 118.301 158.395 136.118 158.459 138.768Z" fill="#FFFDF6"/>
<path d="M86.2477 86.7303C86.2336 84.2478 86.0123 84.5602 86.1017 80.4866C84.5636 80.7749 82.9878 80.8028 81.4404 80.5689C80.328 82.5885 79.1394 84.5514 77.4004 87.1232H85.8884C85.9384 87.1229 85.9878 87.1122 86.0335 87.092C86.0792 87.0716 86.1202 87.0421 86.1539 87.0052C86.1876 86.9683 86.2134 86.9249 86.2296 86.8775C86.2457 86.8303 86.2519 86.7801 86.2477 86.7303Z" fill="#47654D"/>
<path d="M85.82 48.4813C85.3138 47.4369 84.5895 46.5131 83.696 45.7723C80.0153 42.6235 76.0417 41.8783 71.6007 39.595C72.2811 39.232 72.9859 38.9165 73.7097 38.6507C76.9636 37.41 80.285 36.3543 83.658 35.4886C83.7076 35.4706 83.7528 35.4422 83.7904 35.4052C83.828 35.3681 83.8572 35.3234 83.8759 35.2742C83.8946 35.2248 83.9025 35.172 83.899 35.1194C83.8954 35.0667 83.8806 35.0155 83.8553 34.9691C81.6756 30.0131 79.7905 24.9235 77.3338 20.1011C76.6337 18.7267 75.9992 17.324 75.277 15.9611C75.2268 15.8808 75.1478 15.8227 75.0561 15.7987C74.9645 15.7747 74.8673 15.7865 74.7841 15.8319C66.8492 19.3276 60.8604 26.0271 56.3371 33.4257C57.4366 33.8059 58.4408 34.4195 59.2809 35.2242C60.1211 36.0289 60.7774 37.0057 61.2046 38.0878C61.9418 40.3499 60.8506 43.9218 59.4276 45.8652C56.8743 49.3495 51.5643 52.3425 47.5296 53.8258C46.4057 57.7136 45.6941 60.9801 44.0781 67.6654C44.0999 67.5898 44.1454 67.5233 44.2078 67.4755C44.2703 67.4277 44.3464 67.4011 44.425 67.3999H64.0313C64.0793 67.4007 64.1266 67.411 64.1706 67.4301C64.2146 67.4492 64.2544 67.4768 64.2876 67.5113C64.321 67.5459 64.3471 67.5867 64.3646 67.6313C64.3822 67.6759 64.3906 67.7237 64.3898 67.7716C64.3898 67.8601 63.4375 71.9878 62.7631 74.3295C72.3565 58.0348 72.0831 53.3992 73.9504 50.2362C75.2407 48.052 78.2081 47.1768 79.7914 49.0857C80.179 49.6775 80.3914 50.3669 80.4038 51.0743C80.5068 53.5155 80.4858 55.9604 80.341 58.3995C82.4528 58.1593 84.59 58.2789 86.6617 58.7535C86.8564 55.5091 87.0847 51.1929 85.82 48.4813ZM64.434 66.5432C64.4086 66.6354 64.3477 66.7136 64.2647 66.7609C64.1816 66.8081 64.0832 66.8203 63.9911 66.795C63.8989 66.7697 63.8206 66.7087 63.7734 66.6257C63.7262 66.5426 63.714 66.4442 63.7393 66.3521C64.2568 64.2703 64.6411 62.1576 64.8898 60.027C64.9411 59.5712 65.6615 59.5668 65.6102 60.027C65.3628 62.2227 64.9699 64.3996 64.434 66.5432Z" fill="#47654D"/>
<path d="M87.6338 65.214C88.3913 65.0795 89.1046 64.761 89.71 64.2865C90.1507 63.9541 90.4746 63.4897 90.6339 62.9608C90.7932 62.4321 90.7791 61.8663 90.595 61.3456C90.3684 60.8735 90.0507 60.4506 89.6604 60.1013C89.2701 59.7521 88.8152 59.4832 88.3205 59.3101C85.7708 58.3772 83.0353 58.0664 80.3414 58.4039C80.4846 55.9647 80.5056 53.52 80.4042 51.0787C80.3917 50.3714 80.1794 49.682 79.7918 49.0902C79.4402 48.6694 78.9786 48.3548 78.4584 48.1813C77.9383 48.0078 77.3802 47.9824 76.8465 48.1078C73.9508 48.7636 73.3065 51.4602 72.3781 54.2276C69.8822 61.2446 66.6592 67.9812 62.7617 74.3277C63.3759 72.1895 63.868 70.0222 64.3768 67.8539C64.3905 67.8006 64.3918 67.7448 64.3809 67.6908C64.3699 67.6368 64.3469 67.586 64.3136 67.5422C64.2802 67.4984 64.2374 67.4627 64.1883 67.4377C64.1391 67.4127 64.085 67.3992 64.0299 67.3981H44.4201C44.3413 67.3988 44.2648 67.425 44.2022 67.4728C44.1396 67.5207 44.0943 67.5877 44.0732 67.6636C43.313 70.5231 42.7076 73.4232 41.9855 76.2933C41.3053 78.9486 40.8179 81.6496 40.527 84.3751C39.0057 99.182 54.0153 106.812 65.3557 100.022C67.4456 98.7589 69.3407 97.1987 70.9816 95.3906C74.9992 90.847 78.5059 85.8759 81.4388 80.5669C82.9862 80.8001 84.5618 80.7723 86.1001 80.4846C90.549 79.4713 91.6977 73.571 86.5426 72.7489C88.5905 72.1214 90.9322 71.6523 91.1304 69.5629C91.3384 67.4105 89.6755 65.9184 87.6338 65.214ZM78.0563 71.9055L79.8351 71.8302C80.2989 71.8108 80.2962 72.5312 79.8351 72.5506L78.0563 72.6258C77.5934 72.6453 77.5952 71.9249 78.0563 71.9055ZM79.8351 65.6556L78.0563 65.7317C77.5926 65.7512 77.5943 65.0308 78.0563 65.0113L79.8351 64.9361C80.2998 64.9157 80.2971 65.6361 79.836 65.6556H79.8351ZM57.0729 99.9678C56.1051 100.061 55.1292 100.019 54.1728 99.8439C53.717 99.7607 53.9073 99.0687 54.3648 99.1492C55.2587 99.3067 56.1701 99.3404 57.0729 99.2474C57.5358 99.2014 57.5314 99.9236 57.0738 99.9678H57.0729ZM54.9684 85.4026C54.6896 85.7663 54.0648 85.407 54.3489 85.0389C56.187 82.634 58.1945 80.3634 60.3563 78.2447C60.6882 77.9208 61.1979 78.4297 60.8661 78.7545C58.7441 80.827 56.7732 83.0487 54.9684 85.4026Z" fill="#FFFDF6"/>
<path d="M78.0574 72.6258L79.8363 72.5505C80.2974 72.5311 80.3 71.8107 79.8363 71.8301L78.0574 71.9054C77.5963 71.9248 77.5946 72.6452 78.0574 72.6258Z" fill="black"/>
<path d="M78.0574 65.7316L79.8363 65.6555C80.2974 65.636 80.3 64.9156 79.8363 64.936L78.0574 65.0112C77.5963 65.0307 77.5946 65.7555 78.0574 65.7316Z" fill="black"/>
<path d="M61.2024 38.0851C59.8209 33.8451 53.0807 30.8387 47.2194 33.9327C42.8236 36.2558 40.9837 41.8977 36.741 43.6801C33.8205 44.9058 31.3947 43.6871 27.9883 45.4377C25.6387 46.6448 24.3457 48.7122 23.2571 51.4486C22.8333 52.5601 22.2531 53.6055 21.534 54.5532C18.7728 58.0834 13.9991 55.1842 10.6981 58.7923C9.86477 59.7059 9.25359 60.7996 8.91216 61.9881C7.97318 65.2431 8.88826 66.2113 8.04044 68.0176C7.03331 69.6699 5.23057 70.2761 4.63585 72.0054C4.00661 73.8347 5.40314 75.7427 6.76958 76.7994C7.77718 77.5742 8.92605 78.1454 10.152 78.4809C12.7486 79.2022 15.9152 79.6173 18.2144 77.8756C19.9233 76.5808 20.7251 74.5037 21.8429 72.7426C22.3195 71.8883 23.0064 71.17 23.8386 70.6557C25.0731 69.9858 26.4874 70.3902 27.8166 70.2C30.4814 69.8088 32.4912 67.6662 33.878 65.5095C35.3993 63.1377 36.3498 60.3897 38.2508 58.2675C40.2111 56.0771 42.9873 55.2762 45.7043 54.4461C50.3806 53.0186 56.58 49.7503 59.4218 45.8678C60.8448 43.9261 61.9414 40.356 61.2024 38.0851ZM57.6243 42.3959C57.2703 44.7978 54.0843 46.3129 52.0311 44.8934C51.2656 44.3714 50.7294 43.5756 50.5329 42.6701C50.3365 41.7646 50.4949 40.8182 50.9753 40.0259C52.5683 37.532 56.5163 37.6656 57.4084 40.3666C57.638 41.0169 57.7119 41.7119 57.6243 42.3959Z" fill="black"/>
<path d="M54.2157 155.872C48.7253 153.163 42.6853 151.754 36.5629 151.753C30.4404 151.751 24.3999 153.159 18.9086 155.866C18.869 155.881 18.8329 155.904 18.8028 155.934C18.7726 155.964 18.7491 156 18.7337 156.04C18.7182 156.079 18.7113 156.121 18.7132 156.164C18.7151 156.206 18.726 156.248 18.7449 156.286C18.7609 156.361 18.8029 156.428 18.8634 156.475C18.9239 156.522 18.9992 156.546 19.0759 156.543H54.0334C54.1114 156.541 54.1867 156.514 54.2481 156.466C54.3095 156.418 54.3537 156.351 54.3742 156.276C54.3946 156.201 54.3903 156.12 54.3617 156.048C54.3332 155.975 54.282 155.914 54.2157 155.872Z" fill="black"/>
<path d="M57.4091 40.3651C56.4816 37.557 52.2956 37.5039 50.8105 40.3111C50.4325 41.0948 50.3479 41.988 50.5719 42.8287C50.796 43.6694 51.3139 44.402 52.0318 44.8937C54.0939 46.3185 57.2719 44.7875 57.625 42.3962C57.7129 41.7116 57.639 41.0159 57.4091 40.3651Z" fill="#FFFDF6"/>
<path d="M88.7754 16.3401H84.3036C84.208 16.3401 84.1164 16.3781 84.0489 16.4456C83.9812 16.5131 83.9434 16.6047 83.9434 16.7003C83.9434 16.7958 83.9812 16.8874 84.0489 16.955C84.1164 17.0225 84.208 17.0605 84.3036 17.0605H88.7754C88.871 17.0605 88.963 17.0225 89.0303 16.955C89.0975 16.8874 89.1356 16.7958 89.1356 16.7003C89.1356 16.6047 89.0975 16.5131 89.0303 16.4456C88.963 16.3781 88.871 16.3401 88.7754 16.3401Z" fill="black"/>
<path d="M33.9015 79.5474C33.9222 79.4569 33.9072 79.3619 33.8597 79.2823C33.8121 79.2026 33.7356 79.1444 33.6461 79.1198C33.5566 79.0951 33.4612 79.1059 33.3795 79.15C33.2978 79.1941 33.2363 79.2679 33.2077 79.3562C31.8071 84.4875 32.2661 89.9488 34.5033 94.7747C34.6927 95.1968 35.3122 94.8313 35.1228 94.4118C33.0441 89.7381 32.6136 84.4975 33.9015 79.5474Z" fill="black"/>
<path d="M28.1627 78.4651C28.2698 78.0137 27.576 77.8217 27.468 78.273C26.0579 84.1492 26.5726 90.3231 28.9362 95.8844C28.9847 95.9667 29.0637 96.026 29.156 96.0508C29.2484 96.0747 29.3465 96.0614 29.4292 96.0136C29.5102 95.9641 29.5691 95.8853 29.5931 95.7933C29.6172 95.7012 29.6047 95.6039 29.5584 95.5207C27.2967 90.1275 26.8079 84.1546 28.1627 78.4651Z" fill="black"/>
<path d="M54.9685 85.4026C56.7735 83.0499 58.7444 80.8293 60.8662 78.7579C61.1981 78.4331 60.6892 77.9243 60.3564 78.2482C58.1939 80.3657 56.1854 82.635 54.3464 85.0388C54.065 85.4025 54.6924 85.7628 54.9685 85.4026Z" fill="black"/>
<path d="M57.074 99.2474C56.1711 99.3404 55.2598 99.3076 54.3659 99.1492C53.9128 99.0687 53.7181 99.7607 54.1739 99.8439C55.1303 100.019 56.1063 100.061 57.074 99.9678C57.5315 99.9236 57.536 99.2014 57.074 99.2474Z" fill="black"/>
<path d="M124.254 47.2494C124.214 47.1808 124.154 47.1269 124.08 47.0955C124.008 47.0641 123.927 47.057 123.85 47.0751C123.772 47.0933 123.703 47.1358 123.653 47.1963C123.601 47.2569 123.571 47.3322 123.566 47.4113C123.436 50.1645 122.754 54.871 120.911 56.9348C120.648 57.2226 120.34 57.4654 119.999 57.6534C118.082 58.7446 116.326 58.6092 115.617 56.5206C114.778 54.0479 116.403 51.9576 115.128 49.3114C114.853 48.7657 114.535 48.2425 114.177 47.7467C114.161 47.688 114.13 47.6342 114.089 47.5898C114.046 47.5456 113.994 47.5123 113.936 47.4927C113.828 47.4494 111.421 47.2635 111.333 47.2573C109.828 47.0935 108.422 46.4298 107.34 45.3723C106.778 44.9767 106.331 44.442 106.039 43.8209C105.87 43.3952 105.168 43.5828 105.345 44.0129C105.638 44.6989 106.098 45.3002 106.684 45.7617C109.468 48.0193 110.071 47.8928 113.596 48.168C114.324 49.0388 114.779 50.1053 114.904 51.2336C114.942 52.5337 114.608 53.9541 114.659 55.2347C114.738 57.2773 116.035 59.2986 118.132 59.0402C119.132 58.9054 120.083 58.522 120.897 57.9251C123.281 56.0799 124.133 50.6009 124.274 47.6299C124.299 47.5034 124.293 47.3725 124.254 47.2494Z" fill="black"/>
<path d="M74.3396 108.454L81.8055 109.98C82.2577 110.068 82.4515 109.378 81.9967 109.285L74.5308 107.759C74.0741 107.667 73.883 108.361 74.3396 108.454Z" fill="black"/>
<path d="M84.9595 93.9109C83.0257 93.3215 78.5875 92.025 78.3113 91.9426C78.2657 91.9303 78.2181 91.9267 78.1712 91.9329C78.1242 91.9382 78.0789 91.9533 78.0377 91.9772C77.9966 92.0002 77.9604 92.0311 77.9314 92.0692C77.9024 92.1064 77.881 92.1489 77.8684 92.1949C77.8558 92.24 77.8524 92.2878 77.8582 92.3347C77.8642 92.3816 77.8792 92.4267 77.9026 92.4683C77.9259 92.509 77.9572 92.5453 77.9945 92.5745C78.0319 92.6037 78.0745 92.625 78.1202 92.6374C80.0539 93.2268 84.4922 94.5233 84.7674 94.6056C84.8595 94.6313 84.9581 94.6189 85.0412 94.572C85.1243 94.5251 85.1853 94.4463 85.2108 94.3543C85.2363 94.2622 85.2241 94.164 85.1769 94.0808C85.1298 93.9976 85.0516 93.9365 84.9595 93.9109Z" fill="black"/>
<path d="M98.358 76.4128C98.612 76.7977 99.2359 76.4375 98.9775 76.049L95.0286 70.0664C94.7746 69.6806 94.1507 70.0408 94.4091 70.4293L98.358 76.4128Z" fill="black"/>
<path d="M144.576 73.5482C145.166 71.6773 146.514 67.4045 146.597 67.139C146.737 66.6965 146.042 66.5062 145.902 66.9479C145.313 68.8188 143.965 73.0915 143.882 73.357C143.742 73.7995 144.437 73.9863 144.576 73.5482Z" fill="black"/>
<path d="M160.499 84.9343L166.385 80.6775C166.757 80.412 166.399 79.7836 166.022 80.058L160.136 84.3139C159.763 84.5812 160.122 85.206 160.499 84.9343Z" fill="black"/>
<path d="M163.896 102.553C163.44 102.636 163.63 103.33 164.087 103.248L172.251 101.758C172.706 101.676 172.517 100.981 172.06 101.064L163.896 102.553Z" fill="black"/>
<path d="M172.06 120.062C172.513 120.131 172.708 119.436 172.251 119.367L164.087 118.132C163.634 118.064 163.438 118.758 163.896 118.827L172.06 120.062Z" fill="black"/>
<path d="M82.6099 128.729C80.4859 129.271 75.337 130.704 75.337 130.704C75.2449 130.73 75.1665 130.79 75.1194 130.873C75.0721 130.956 75.0598 131.054 75.0852 131.146C75.1105 131.239 75.1714 131.317 75.2545 131.364C75.3376 131.412 75.436 131.424 75.5282 131.399C77.6522 130.856 82.4975 129.513 82.8011 129.424C82.8932 129.399 82.9714 129.338 83.0187 129.255C83.0659 129.172 83.0782 129.074 83.0529 128.981C83.0275 128.889 82.9666 128.811 82.8835 128.764C82.8005 128.716 82.702 128.704 82.6099 128.729Z" fill="black"/>
<path d="M163.106 137.055C162.686 136.866 162.32 137.487 162.742 137.674C164.79 138.593 169.456 140.683 169.742 140.816C170.162 141.004 170.528 140.383 170.106 140.196L163.106 137.055Z" fill="black"/>
<path d="M125.358 30.8087C126.106 28.9325 127.267 27.2487 128.754 25.8819C130.242 24.5151 132.017 23.5004 133.95 22.9127C133.996 22.9001 134.038 22.8786 134.076 22.8496C134.113 22.8204 134.144 22.7842 134.168 22.7431C134.191 22.7018 134.206 22.6565 134.212 22.6095C134.217 22.5625 134.214 22.5149 134.201 22.4694C134.189 22.4237 134.167 22.381 134.138 22.3437C134.109 22.3063 134.073 22.2752 134.031 22.2518C133.991 22.2285 133.946 22.2135 133.898 22.2077C133.851 22.2018 133.804 22.2054 133.758 22.218C131.707 22.8419 129.822 23.922 128.247 25.3772C126.673 26.8324 125.447 28.6251 124.663 30.6211C124.495 31.0494 125.188 31.2353 125.358 30.8087Z" fill="black"/>
<path d="M132.364 28.9443C130.206 29.4387 128.279 30.6508 126.899 32.3825C126.614 32.7418 127.121 33.2551 127.408 32.8923C128.705 31.2544 130.52 30.1067 132.555 29.6381C133.007 29.5346 132.816 28.8398 132.364 28.9443Z" fill="black"/>
<path d="M6.73103 76.8419C7.74761 77.6211 8.90518 78.1966 10.14 78.5367C18.5927 80.9058 19.7715 76.1259 21.8946 72.7718C22.3665 71.9266 23.0461 71.2157 23.869 70.7062C25.0956 70.0415 26.5125 70.4504 27.8329 70.2566C30.5136 69.8628 32.5358 67.7087 33.9297 65.5351C35.4484 63.1678 36.3971 60.4225 38.2936 58.3038C40.6831 55.632 44.209 55.0895 47.4366 53.9169C46.4029 57.5073 46.3073 58.1649 41.9275 76.2764C41.2331 78.934 40.7448 81.6413 40.4672 84.3741C40.0987 87.6529 40.6419 90.97 42.0372 93.9596C41.7496 95.3225 30.295 149.761 30.1941 150.195C30.1785 150.257 30.1772 150.323 30.1902 150.385C30.2031 150.448 30.2301 150.508 30.2691 150.558C30.308 150.609 30.3579 150.651 30.4151 150.68C30.4723 150.709 30.5353 150.724 30.5995 150.726H56.0715C56.1633 150.725 56.2523 150.695 56.3252 150.639C56.3982 150.584 56.4511 150.506 56.476 150.417C57.599 144.665 63.9604 111.468 64.3772 109.332C64.6427 113.934 66.9039 147.137 67.1659 150.308C67.1682 150.418 67.2131 150.524 67.2916 150.602C67.3699 150.681 67.4755 150.725 67.5863 150.728H86.0261V151.812C78.845 151.247 71.6439 152.623 65.1764 155.795C65.0864 155.831 65.0119 155.898 64.9657 155.984C64.9194 156.069 64.9043 156.168 64.9229 156.264C64.9415 156.359 64.9927 156.445 65.0676 156.507C65.1426 156.569 65.2368 156.603 65.3339 156.603H86.0261V162.956C86.0311 163.064 86.0775 163.166 86.1557 163.241C86.2339 163.315 86.3379 163.357 86.446 163.357C86.5542 163.357 86.6582 163.315 86.7364 163.241C86.8147 163.166 86.861 163.064 86.866 162.956V156.603H100.292C100.383 156.6 100.471 156.568 100.543 156.512C100.614 156.456 100.666 156.378 100.689 156.29C100.713 156.202 100.707 156.109 100.675 156.025C100.641 155.94 100.581 155.868 100.504 155.82C96.2434 153.666 91.6184 152.328 86.866 151.875V150.724H92.0636C92.1751 150.723 92.2813 150.679 92.3601 150.6C92.4388 150.522 92.4831 150.415 92.484 150.304C92.4344 149.756 91.637 141.088 91.4937 139.543H158.821C158.932 139.541 159.038 139.496 159.117 139.418C159.194 139.34 159.24 139.234 159.241 139.123C159.295 137.094 159.714 108.919 159.653 103.827C159.564 95.9765 159.452 91.3674 157.352 86.0592C154.998 80.5191 150.962 76.9375 144.769 76.8746C143.027 76.8569 139.698 76.8746 132.524 76.8746V47.9909C132.517 47.5997 132.2 47.567 131.816 47.5661C131.251 47.5661 129.484 47.5705 124.332 47.5705C124.201 43.2897 123.139 39.0887 121.217 35.2611C114.668 22.9498 101.342 14.9592 88.1245 13.5963C74.2636 12.3449 63.5215 21.5701 56.3096 33.3486C54.84 32.7827 53.2665 32.5374 51.6945 32.629C50.1224 32.7206 48.5881 33.147 47.1941 33.8796C42.8222 36.2107 40.9053 41.8605 36.7272 43.6216C35.287 44.1175 33.7701 44.3533 32.2473 44.3181C30.8128 44.3158 29.3987 44.6575 28.1235 45.3145C26.8483 45.9716 25.7493 46.9249 24.9186 48.0944C23.1858 50.6981 23.1743 52.3584 21.4937 54.5107C19.5777 56.963 16.6262 56.3249 14.0376 56.8683C12.7859 57.1555 11.6387 57.7847 10.7239 58.686C9.80903 59.5872 9.16263 60.7249 8.85677 61.9721C7.92047 65.3103 8.82848 66.1945 7.99127 67.9901C6.98591 69.638 5.18051 70.2469 4.58048 71.9921C3.94593 73.8382 5.35485 75.7631 6.73103 76.8419ZM86.0261 155.76C86.0261 155.76 68.0677 155.747 67.2836 155.741C73.1855 153.197 79.6196 152.134 86.0261 152.644V155.76ZM41.2248 86.0609C41.3903 81.6032 42.0381 79.2137 44.7506 68.1786H63.5055C62.863 71.1301 62.0895 74.0524 61.1603 76.9277C61.1368 77.0252 61.1487 77.1277 61.1939 77.2172C61.2391 77.3066 61.3146 77.3771 61.407 77.4159C61.4994 77.4548 61.6026 77.4594 61.6981 77.4293C61.7937 77.399 61.8753 77.3357 61.9285 77.2508C66.0146 70.7406 69.4917 63.8675 72.3157 56.7188C73.714 52.9664 74.0689 50.5317 75.7203 49.3954C76.1287 49.0888 76.6113 48.8963 77.1186 48.8377C77.6259 48.7791 78.1396 48.8564 78.6072 49.0617C78.8787 49.2345 79.107 49.4673 79.2745 49.742C79.4421 50.0167 79.5444 50.3263 79.5736 50.6468C79.7164 53.3592 79.7052 56.0776 79.5399 58.7888C79.5405 58.9003 79.585 59.0071 79.6639 59.0859C79.7429 59.1646 79.8497 59.209 79.9612 59.2092C82.3484 58.881 84.7775 59.0418 87.1005 59.6817C88.0049 59.9001 88.8316 60.3634 89.49 61.0207C89.7891 61.3308 89.9608 61.7419 89.9715 62.1728C89.9821 62.6036 89.8298 63.0225 89.5458 63.3465C88.7147 64.3616 87.3156 64.5192 86.0943 64.6519C85.9949 64.656 85.9001 64.6948 85.8265 64.7617C85.753 64.8287 85.7054 64.9194 85.6921 65.018C85.6788 65.1165 85.7006 65.2166 85.7538 65.3007C85.807 65.3848 85.8881 65.4474 85.9827 65.4776C87.25 65.7586 88.4348 66.3296 89.444 67.1458C89.7475 67.434 89.9865 67.7828 90.1458 68.1694C90.306 68.5561 90.3821 68.972 90.3706 69.3902C90.3139 69.8078 90.1378 70.2001 89.8635 70.52C89.5891 70.8398 89.2289 71.0736 88.8245 71.1929C87.8997 71.5761 87.3633 71.6753 84.7101 72.4886C84.6153 72.5188 84.5343 72.5816 84.4812 72.6658C84.428 72.7498 84.4062 72.85 84.4197 72.9486C84.4331 73.0473 84.4808 73.138 84.5545 73.2048C84.6282 73.2717 84.7231 73.3105 84.8225 73.3143C86.5226 73.4028 89.1634 73.8214 89.1758 76.0233C89.1865 78.0641 87.3651 79.5695 85.4093 79.8208C84.0238 79.9899 82.6218 79.9694 81.2418 79.7597C81.1683 79.7586 81.0957 79.7773 81.0318 79.8138C80.9679 79.8504 80.9152 79.9036 80.879 79.9677C78.2841 84.6747 75.253 89.1275 71.8254 93.2675C68.6943 96.9597 64.8835 100.201 60.0549 101.299C50.5766 103.566 40.8345 96.8243 41.2248 86.0609ZM83.734 45.7297C80.2444 42.6658 76.1008 41.818 71.7245 39.5914C74.1237 38.301 82.8419 35.4319 88.3448 34.5654C89.7024 34.2306 91.114 34.1766 92.4928 34.4063C93.8716 34.6361 95.1894 35.145 96.3647 35.9018C98.0701 37.0105 99.579 38.3956 100.829 40.0002C102.64 42.2934 104.203 44.7723 105.491 47.3953C104.37 47.3953 103.856 47.3953 103.598 47.4165C103.258 47.4475 103.209 47.5864 103.196 47.8918C103.147 48.9644 103.17 53.8841 103.17 76.9605C103.148 76.9667 101.464 77.4871 101.184 77.58C99.6082 78.0667 98.0842 78.7083 96.6346 79.4951C93.838 81.1657 91.5299 83.5424 89.9414 86.3866C88.4961 88.8947 87.599 91.6807 87.3094 94.5614C87.2058 95.2959 87.3784 95.903 86.7182 89.9496C86.2787 86.8316 86.0916 83.6832 86.1589 80.535C90.4954 79.5677 91.7742 73.7205 86.7925 72.7381C87.7259 72.4965 88.6395 72.1832 89.5245 71.8009C89.9697 71.6009 90.3573 71.2906 90.6494 70.8992C90.9414 70.5079 91.129 70.0485 91.1936 69.5645C91.2343 69.0096 91.152 68.4525 90.952 67.9333C90.752 67.4142 90.4396 66.9457 90.0369 66.5617C89.3944 65.9827 88.6466 65.532 87.8342 65.2342C88.536 65.09 89.1935 64.7819 89.7529 64.3351C90.198 63.9926 90.5246 63.5185 90.6856 62.9802C90.8467 62.4419 90.8334 61.8665 90.6494 61.3358C90.1794 60.373 89.3546 59.6298 88.3484 59.2622C87.8221 59.0366 87.278 58.8552 86.7217 58.7197C86.7872 57.6232 86.8501 56.5267 86.8589 55.4267C86.889 51.4902 86.7297 48.2263 83.734 45.7297ZM104.011 49.1317C104.011 49.1317 117.924 68.5017 118.507 69.3008C116.585 71.5372 111.897 77.2127 111.421 77.7676L104.011 77.7579V49.1317ZM85.4553 86.3406H77.9956C79.5161 84.0529 80.5365 82.3254 81.4719 80.6297C82.7432 80.7946 84.0291 80.8145 85.3048 80.689C85.2447 83.9591 85.4084 84.2449 85.4553 86.3406ZM98.4329 155.76H86.866V152.724C90.8609 153.101 94.7681 154.126 98.4329 155.76ZM91.5945 149.884H86.866V143.512C86.861 143.404 86.8147 143.302 86.7364 143.227C86.6582 143.152 86.5542 143.111 86.446 143.111C86.3379 143.111 86.2339 143.152 86.1557 143.227C86.0775 143.302 86.0311 143.404 86.0261 143.512V149.884H67.9721C67.5119 144.308 65.2003 109.141 65.0206 105.966C64.995 105.524 64.2905 105.364 64.1949 105.855C63.0728 111.607 56.3317 146.767 55.7246 149.884H31.1216C31.8836 146.26 42.3337 96.6464 42.6664 95.0649C47.2268 102.475 57.2512 104.862 65.3879 100.07C67.4777 98.7979 69.3759 97.2349 71.0254 95.4287C73.3671 92.8445 75.509 90.0859 77.4328 87.1769H85.5314C85.6783 88.4726 86.6076 96.9606 86.7899 98.7819C85.7784 112.203 85.5241 125.671 86.0279 139.121C86.0295 139.232 86.0743 139.338 86.1528 139.417C86.2313 139.495 86.3373 139.54 86.4483 139.541H90.6555C90.7529 140.617 91.5087 149.203 91.5972 149.887L91.5945 149.884ZM145.226 77.7136C147.783 77.7124 150.259 78.6116 152.22 80.2536C158.769 85.9468 158.686 95.1216 158.801 102.821C159.028 117.906 158.359 135.686 158.401 138.71H133.059C132.854 127.532 132.894 110.478 133.569 99.0315C133.766 94.1773 134.49 87.9062 136.828 83.6272C138.527 80.6447 141.865 78.0181 145.221 77.7172L145.226 77.7136ZM137.845 78.6048C138.313 78.5968 138.383 77.9012 138.042 77.7136H142.082C140.405 78.5006 138.909 79.6264 137.689 81.02C132.985 86.3034 132.778 96.8686 132.492 103.926C131.926 117.909 132.174 137.436 132.218 138.702H86.8554C86.573 129.014 86.3288 100.293 88.8369 91.0886C90.152 86.4233 93.2309 82.4528 97.4214 80.0173C98.917 79.2548 100.482 78.6359 102.094 78.1685C102.438 78.0632 102.81 77.9242 103.169 77.8198C103.169 78.2074 103.151 78.2986 103.262 78.434C103.298 78.4885 103.346 78.533 103.403 78.5633C103.461 78.5935 103.525 78.6084 103.59 78.6066C115.381 78.4154 135.414 78.6508 137.84 78.6083L137.845 78.6048ZM124.309 48.4095H131.144L121.518 58.8472C121.153 59.2446 121.745 59.841 122.112 59.4419L131.682 49.0653V77.7676H112.514C113.009 77.1879 119.309 69.6752 119.354 69.5814C119.422 69.5246 119.466 69.443 119.475 69.3544C119.483 69.2659 119.456 69.1775 119.399 69.1088L104.407 48.2369H113.558C114.402 49.202 114.858 50.4462 114.836 51.7282C114.812 52.6451 114.589 53.9487 114.589 54.8965C114.571 56.9188 115.651 59.0861 117.675 59.1268C118.829 59.0799 119.942 58.6908 120.873 58.0091C122.528 56.763 123.393 54.2319 123.788 52.2265C124.049 50.9676 124.223 49.6923 124.309 48.4095ZM86.7173 14.3458C99.6188 15.1158 113.179 22.7888 120.008 34.7955C122.222 38.7632 123.416 43.2182 123.482 47.7608C123.336 50.4255 122.639 54.9036 120.863 56.8922C120.022 57.8348 117.86 58.764 116.666 57.9383C116.065 57.4481 115.661 56.7562 115.532 55.9913C115.211 54.4523 115.772 52.7168 115.672 51.0601C115.596 50.2368 115.33 49.4422 114.897 48.7378C114.854 48.6644 114.255 47.7157 114.178 47.6201C114.051 47.3926 113.762 47.3802 113.496 47.374C111.011 47.1696 110.301 47.2015 109.144 46.5545C108.525 46.1885 107.933 45.7777 107.374 45.3253C106.821 44.9374 106.378 44.4118 106.089 43.8004C105.892 43.3039 105.078 43.5208 105.278 44.0234C105.578 44.7178 106.043 45.3278 106.633 45.7996C107.349 46.4034 108.122 46.9369 108.94 47.3926C108.883 47.3926 107.202 47.3926 106.417 47.3873C104.063 43.0791 101.998 39.0444 97.6612 35.7628C96.2841 34.7345 94.7018 34.0159 93.0212 33.6565C90.2502 33.1043 86.8439 33.9044 83.8322 34.6504C81.1772 28.5014 79.5922 24.0941 75.5884 16.3309C79.1121 14.8761 82.9081 14.199 86.7173 14.3458ZM74.7698 16.6902C78.9116 24.7207 80.4462 29.0696 82.9684 34.869C79.9639 35.6505 73.7158 37.5497 71.1413 38.94C70.8094 39.1312 70.3067 39.5834 70.6413 39.9383C71.0068 40.4144 76.5017 42.5526 78.2372 43.3349C81.6639 44.8801 85.0517 46.8864 85.6571 50.5919C86.055 53.22 86.1373 55.8862 85.9022 58.5339C84.0873 58.2064 82.235 58.1395 80.4011 58.3348C80.5214 56.1621 80.5851 52.7186 80.4612 51.0778C80.4481 50.3599 80.2335 49.66 79.8417 49.0582C79.4852 48.6249 79.0141 48.3005 78.482 48.122C77.9501 47.9434 77.3785 47.918 76.8327 48.0484C73.9229 48.6679 73.2458 51.4601 72.3192 54.2107C69.8848 61.078 66.7436 67.6739 62.9462 73.8922C63.5064 71.9009 63.9604 69.8849 64.4357 67.8742C64.4512 67.812 64.4526 67.747 64.4396 67.6842C64.4266 67.6213 64.3997 67.5622 64.3608 67.5112C64.3218 67.4602 64.2719 67.4186 64.2147 67.3896C64.1575 67.3604 64.0945 67.3446 64.0303 67.3432H44.9524C46.1914 62.1783 47.0074 58.3542 48.4313 53.5372C52.2501 52.0176 56.9937 49.206 59.477 45.8926C60.254 44.8052 60.8158 43.5793 61.132 42.2809C61.5728 40.9172 61.6173 39.4563 61.2603 38.0683C60.8905 37.0984 60.3316 36.2117 59.6159 35.4598C58.9003 34.7079 58.0423 34.1058 57.0919 33.6884C61.4329 26.6252 67.1588 20.1417 74.7707 16.6902H74.7698ZM5.65487 71.7177C6.64518 70.2221 8.49395 69.607 9.06652 67.5388C9.50902 65.2741 8.78777 64.4935 9.86302 61.6332C10.268 60.5297 10.9497 59.5487 11.8428 58.7844C12.8778 58.0126 14.1198 57.5676 15.4093 57.5064C17.6926 57.2683 20.4662 57.4586 22.3946 54.7098C24.5186 51.8035 24.5815 47.8785 28.7188 45.943C31.503 44.6208 33.8465 45.6518 37.2688 44.2969C40.5566 42.734 42.2115 39.5737 44.6692 36.9576C50.3827 30.621 59.5469 33.8362 60.5886 38.8515C60.7746 40.2883 60.5725 41.7486 60.0036 43.0809C59.6228 44.1742 59.0354 45.1839 58.2734 46.0554C55.4889 48.9293 52.1307 51.1847 48.4172 52.6752C44.4851 54.3036 40.338 54.4585 37.3626 58.1047C34.5802 61.6668 33.7633 65.6139 30.5782 68.1202C29.6118 68.9188 28.4198 69.395 27.1692 69.4822C26.3861 69.4547 25.6021 69.4682 24.8204 69.5229C22.1247 69.915 20.9627 72.6629 19.7582 74.7825C19.2703 75.6617 18.6426 76.4555 17.8997 77.1331C16.8788 77.9127 15.6265 78.3285 14.342 78.3145C11.0153 78.3198 6.46553 76.9437 5.43096 73.7931C5.30019 73.4544 5.25227 73.0893 5.29122 72.7282C5.33017 72.3672 5.45485 72.0208 5.65487 71.7177Z" fill="black"/>
<path d="M101.156 106.304C100.901 105.827 100.176 106.25 100.43 106.728C102.515 110.637 107.055 119.141 107.239 119.486C107.277 119.548 107.33 119.6 107.394 119.635C107.457 119.671 107.529 119.69 107.602 119.69C107.674 119.69 107.746 119.671 107.81 119.635C107.873 119.6 107.926 119.548 107.964 119.486C108.523 118.57 124.852 91.8524 124.861 91.8364C125.144 91.3736 124.418 90.9514 124.136 91.4125C123.577 92.3276 107.723 118.252 107.618 118.413L101.156 106.304Z" fill="black"/>
<path d="M132.472 143.104C132.365 143.108 132.264 143.151 132.188 143.227C132.113 143.302 132.07 143.404 132.066 143.51C132.056 148.531 132.002 161.596 132.026 163.106C132.031 163.214 132.077 163.316 132.155 163.391C132.234 163.466 132.337 163.507 132.445 163.507C132.554 163.507 132.657 163.466 132.736 163.391C132.814 163.316 132.86 163.214 132.865 163.106C132.876 158.085 132.93 145.021 132.906 143.51C132.904 143.455 132.892 143.4 132.869 143.35C132.847 143.299 132.814 143.254 132.773 143.217C132.733 143.179 132.686 143.15 132.634 143.13C132.582 143.111 132.526 143.103 132.472 143.104Z" fill="black"/>
<path d="M158.985 162.957V142.666C158.985 142.555 158.941 142.448 158.862 142.369C158.783 142.29 158.676 142.246 158.565 142.246C158.453 142.246 158.346 142.29 158.268 142.369C158.189 142.448 158.145 142.555 158.145 142.666V162.957C158.145 163.068 158.189 163.175 158.268 163.254C158.346 163.333 158.453 163.377 158.565 163.377C158.676 163.377 158.783 163.333 158.862 163.254C158.941 163.175 158.985 163.068 158.985 162.957Z" fill="black"/>
<path d="M150.549 113.05H141.979C141.871 113.055 141.769 113.101 141.694 113.18C141.62 113.258 141.578 113.362 141.578 113.47C141.578 113.578 141.62 113.682 141.694 113.761C141.769 113.838 141.871 113.885 141.979 113.89H150.549C150.606 113.892 150.663 113.884 150.716 113.864C150.77 113.844 150.818 113.814 150.859 113.774C150.9 113.735 150.933 113.688 150.956 113.636C150.978 113.584 150.989 113.527 150.989 113.47C150.989 113.414 150.978 113.357 150.956 113.305C150.933 113.253 150.9 113.206 150.859 113.166C150.818 113.127 150.77 113.096 150.716 113.076C150.663 113.056 150.606 113.047 150.549 113.05Z" fill="black"/>
<path d="M150.549 110.094H141.979C141.871 110.099 141.769 110.145 141.694 110.223C141.62 110.302 141.578 110.406 141.578 110.513C141.578 110.622 141.62 110.726 141.694 110.804C141.769 110.883 141.871 110.929 141.979 110.934H150.549C150.606 110.937 150.663 110.928 150.716 110.907C150.77 110.888 150.818 110.857 150.859 110.818C150.9 110.779 150.933 110.731 150.956 110.679C150.978 110.627 150.989 110.571 150.989 110.513C150.989 110.457 150.978 110.401 150.956 110.349C150.933 110.297 150.9 110.249 150.859 110.21C150.818 110.171 150.77 110.14 150.716 110.121C150.663 110.1 150.606 110.091 150.549 110.094Z" fill="black"/>
<path d="M141.979 108.153H150.549C150.657 108.148 150.759 108.102 150.834 108.023C150.909 107.945 150.95 107.842 150.95 107.733C150.95 107.625 150.909 107.521 150.834 107.443C150.759 107.365 150.657 107.318 150.549 107.313H141.979C141.871 107.318 141.769 107.365 141.694 107.443C141.62 107.521 141.578 107.625 141.578 107.733C141.578 107.842 141.62 107.945 141.694 108.023C141.769 108.102 141.871 108.148 141.979 108.153Z" fill="black"/>
<path d="M78.0569 72.6861L79.8349 72.6109C80.3738 72.5879 80.3774 71.7471 79.8349 71.7701L78.0569 71.8454C77.5188 71.8684 77.5162 72.7091 78.0569 72.6861Z" fill="black"/>
<path d="M78.0569 65.7911L79.8349 65.7159C80.3738 65.6928 80.3774 64.853 79.8349 64.876L78.0569 64.9512C77.5188 64.9742 77.5162 65.815 78.0569 65.7911Z" fill="black"/>
<path d="M18.8801 155.813C18.8339 155.831 18.7919 155.858 18.7568 155.893C18.7217 155.927 18.6943 155.97 18.6764 156.016C18.6585 156.062 18.6504 156.111 18.6528 156.161C18.6551 156.21 18.6677 156.258 18.6898 156.303C18.7084 156.39 18.7573 156.468 18.8279 156.524C18.8984 156.579 18.9862 156.607 19.0757 156.603H54.0332C54.1243 156.601 54.2121 156.57 54.2837 156.513C54.3554 156.457 54.4069 156.38 54.4308 156.291C54.4547 156.203 54.4496 156.11 54.4162 156.025C54.3829 155.941 54.323 155.869 54.2456 155.821C45.6188 151.529 35.724 150.527 26.4115 153.001C23.8133 153.684 21.2901 154.626 18.8801 155.813ZM52.1747 155.76C17.673 155.76 24.8583 155.767 21.0227 155.741C25.9398 153.611 31.242 152.514 36.6006 152.517C41.9593 152.52 47.2602 153.624 52.1747 155.76Z" fill="black"/>
<path d="M52.0007 44.9448C54.0893 46.3882 57.3204 44.8625 57.6833 42.404C57.7718 41.7115 57.6975 41.0078 57.4665 40.349C56.493 37.3869 51.9919 37.4736 50.6431 40.5163C50.6371 40.533 50.6324 40.5502 50.629 40.5676C50.6186 40.5834 50.6091 40.5996 50.6006 40.6163C50.3251 41.3913 50.313 42.2356 50.5661 43.0182C50.8193 43.8007 51.3235 44.478 52.0007 44.9448ZM51.4007 40.8738C51.7595 40.1487 52.3628 39.5736 53.1043 39.2498C53.6726 38.9953 54.3104 38.9402 54.914 39.0934C55.5177 39.2467 56.052 39.5993 56.4301 40.0941C56.7667 40.615 56.9317 41.2281 56.9019 41.8475C56.8721 42.4668 56.6491 43.0613 56.264 43.5474C55.879 44.0334 55.3514 44.3867 54.7553 44.5575C54.1592 44.7283 53.5246 44.7081 52.9406 44.4997C52.2714 44.2043 51.7398 43.6654 51.4538 42.9922C51.1677 42.3191 51.1488 41.5623 51.4007 40.8756V40.8738Z" fill="black"/>
<path d="M84.3032 17.1203H88.7759C88.8874 17.1203 88.9945 17.0761 89.0732 16.9972C89.152 16.9184 89.1963 16.8115 89.1963 16.7C89.1963 16.5884 89.152 16.4815 89.0732 16.4027C88.9945 16.3239 88.8874 16.2796 88.7759 16.2796H84.3032C84.1917 16.2796 84.0848 16.3239 84.0059 16.4027C83.9271 16.4815 83.8828 16.5884 83.8828 16.7C83.8828 16.8115 83.9271 16.9184 84.0059 16.9972C84.0848 17.0761 84.1917 17.1203 84.3032 17.1203Z" fill="black"/>
<path d="M33.6467 79.0573C33.543 79.0316 33.4335 79.0466 33.3406 79.0994C33.2477 79.152 33.1786 79.2383 33.1475 79.3405C31.7393 84.4871 32.2009 89.9664 34.4503 94.8047C34.6706 95.2977 35.3946 94.8711 35.1751 94.3808C33.1066 89.7204 32.6776 84.4971 33.9582 79.5618C33.9832 79.4535 33.9645 79.3399 33.9062 79.2455C33.8478 79.1509 33.7546 79.0833 33.6467 79.0573Z" fill="black"/>
<path d="M27.4091 78.257C25.9926 84.1479 26.5096 90.3381 28.8835 95.9128C28.9401 96.0083 29.0323 96.0783 29.1398 96.1057C29.2473 96.134 29.3616 96.119 29.4579 96.0632C29.5519 96.0048 29.6201 95.9128 29.6483 95.8066C29.6765 95.6995 29.6625 95.5853 29.6092 95.4889C27.3562 90.1098 26.8694 84.1544 28.2189 78.4809C28.3445 77.9552 27.5339 77.7304 27.4091 78.257Z" fill="black"/>
<path d="M54.4466 85.5798C54.5436 85.6332 54.6574 85.6474 54.7646 85.6192C54.8717 85.591 54.9638 85.5227 55.0219 85.4284C56.8236 83.0784 58.7909 80.8602 60.9089 78.7909C61.2965 78.413 60.7018 77.8174 60.3151 78.1971C58.1495 80.3184 56.1383 82.5918 54.2971 85.0001C54.2688 85.048 54.2503 85.1009 54.2425 85.1559C54.2347 85.211 54.2378 85.2671 54.2517 85.3209C54.2656 85.3747 54.29 85.4253 54.3234 85.4698C54.3569 85.5141 54.3988 85.5515 54.4466 85.5798Z" fill="black"/>
<path d="M54.1609 99.9015C55.1239 100.079 56.1068 100.122 57.0814 100.028C57.6124 99.9749 57.6204 99.1342 57.0814 99.1882C56.1838 99.2802 55.2779 99.2474 54.3892 99.0917C53.8529 98.997 53.6299 99.8059 54.1609 99.9015Z" fill="black"/>
<path d="M63.9921 66.8424C64.0955 66.8671 64.2046 66.8517 64.297 66.7991C64.3896 66.7465 64.4586 66.6608 64.4903 66.5592C65.0271 64.4103 65.4199 62.2281 65.6665 60.027C65.6655 59.9157 65.621 59.8094 65.5423 59.7307C65.4637 59.6521 65.3573 59.6075 65.2461 59.6066C65.1354 59.6091 65.0299 59.6541 64.9516 59.7325C64.8733 59.8108 64.8282 59.9163 64.8257 60.027C64.583 62.1529 64.1986 64.2604 63.6752 66.3353C63.6625 66.3893 63.6606 66.4454 63.6697 66.5002C63.6788 66.5551 63.6986 66.6076 63.7281 66.6547C63.7575 66.7018 63.796 66.7427 63.8414 66.7749C63.8867 66.8071 63.9378 66.83 63.9921 66.8424Z" fill="black"/>
<path d="M45.8937 120.859C45.7167 120.351 44.9061 120.57 45.0839 121.082L46.2415 124.426C46.4185 124.934 47.2292 124.715 47.0522 124.203L45.8937 120.859Z" fill="black"/>
<path d="M75.4174 124.203C75.0303 123.088 74.6444 121.973 74.2598 120.859C74.0828 120.351 73.2713 120.57 73.4491 121.082L74.6067 124.426C74.782 124.934 75.5944 124.715 75.4174 124.203Z" fill="black"/>
<path d="M74.3223 108.512L81.7882 110.037C82.3192 110.145 82.5422 109.336 82.0112 109.228L74.5454 107.704C74.0179 107.594 73.7913 108.404 74.3223 108.512Z" fill="black"/>
<path d="M84.9737 93.8534L78.3229 91.8851C78.2154 91.8559 78.1005 91.8701 78.0036 91.925C77.9067 91.9798 77.8357 92.0719 77.8061 92.1789C77.7765 92.2869 77.7909 92.4011 77.8459 92.4984C77.9011 92.5949 77.9924 92.6666 78.0999 92.6958L84.7472 94.6631C84.853 94.6879 84.9644 94.6711 85.058 94.6162C85.1516 94.5605 85.2201 94.4711 85.249 94.3658C85.2781 94.2614 85.2653 94.149 85.2135 94.0534C85.1616 93.9578 85.0747 93.8861 84.9711 93.8534H84.9737Z" fill="black"/>
<path d="M98.3047 76.443C98.6021 76.8926 99.3296 76.4722 99.0304 76.0191C98.2596 74.8509 95.2302 70.2604 95.0816 70.0365C94.7851 69.5869 94.0567 70.0073 94.3559 70.4604C95.5064 72.203 98.1392 76.1908 98.3047 76.443Z" fill="black"/>
<path d="M144.633 73.5637C145.223 71.6928 146.57 67.42 146.653 67.1545C146.817 66.6377 146.006 66.4164 145.844 66.9315L143.822 73.3398C143.659 73.8566 144.471 74.0743 144.633 73.5637Z" fill="black"/>
<path d="M165.991 80.0042L160.105 84.2601C159.671 84.5743 160.089 85.3036 160.529 84.9867L166.415 80.7299C166.85 80.4157 166.43 79.6865 165.991 80.0042Z" fill="black"/>
<path d="M164.103 103.305L172.267 101.817C172.798 101.719 172.573 100.909 172.043 101.006L163.879 102.495C163.348 102.592 163.573 103.402 164.103 103.305Z" fill="black"/>
<path d="M172.267 119.31L164.102 118.075C163.995 118.048 163.882 118.064 163.786 118.118C163.689 118.173 163.618 118.263 163.586 118.368C163.571 118.421 163.567 118.477 163.573 118.532C163.58 118.586 163.598 118.64 163.625 118.687C163.653 118.735 163.689 118.778 163.733 118.811C163.776 118.846 163.826 118.871 163.879 118.885L172.043 120.124C172.15 120.15 172.263 120.135 172.36 120.08C172.456 120.026 172.528 119.937 172.56 119.831C172.575 119.778 172.58 119.721 172.574 119.666C172.567 119.611 172.55 119.557 172.522 119.509C172.495 119.46 172.459 119.417 172.414 119.384C172.371 119.349 172.321 119.325 172.267 119.31Z" fill="black"/>
<path d="M82.5935 128.672L75.3206 130.645C75.2131 130.675 75.1217 130.746 75.0667 130.843C75.0115 130.94 74.9972 131.054 75.0268 131.162C75.0563 131.269 75.1274 131.361 75.2244 131.416C75.3213 131.471 75.4362 131.485 75.5436 131.456C77.6623 130.881 82.5121 129.571 82.8165 129.482C82.9196 129.448 83.0058 129.376 83.0571 129.281C83.1085 129.186 83.1212 129.075 83.0924 128.97C83.0636 128.866 82.9957 128.776 82.9028 128.721C82.8099 128.665 82.6991 128.648 82.5935 128.672Z" fill="black"/>
<path d="M170.135 140.144L163.136 137.003C162.645 136.783 162.218 137.507 162.711 137.728L169.711 140.87C170.201 141.089 170.628 140.361 170.135 140.144Z" fill="black"/>
<path d="M134.239 22.4438C134.207 22.3421 134.138 22.2562 134.045 22.2035C133.953 22.1508 133.844 22.1351 133.74 22.1597C131.68 22.7879 129.789 23.8734 128.207 25.3352C126.626 26.7971 125.395 28.5974 124.607 30.6017C124.41 31.1053 125.221 31.323 125.417 30.8247C126.164 28.9596 127.32 27.2859 128.8 25.9266C130.28 24.5673 132.046 23.5571 133.968 22.9704C134.074 22.9365 134.161 22.8619 134.213 22.7633C134.263 22.6645 134.273 22.5496 134.239 22.4438Z" fill="black"/>
<path d="M132.348 28.8853C130.182 29.3849 128.248 30.6011 126.861 32.3368C126.785 32.4172 126.742 32.5236 126.742 32.6342C126.742 32.7448 126.785 32.8512 126.861 32.9316C126.9 32.9706 126.947 33.0017 126.997 33.0228C127.048 33.0439 127.103 33.0547 127.158 33.0547C127.213 33.0547 127.268 33.0439 127.319 33.0228C127.371 33.0017 127.417 32.9706 127.455 32.9316C128.744 31.3008 130.55 30.1585 132.576 29.6933C133.099 29.5748 132.876 28.7623 132.348 28.8853Z" fill="black"/>
</svg>
