<svg width="133" height="72" viewBox="0 0 133 72" fill="none" xmlns="http://www.w3.org/2000/svg">
<path d="M121.736 43.5512C120.904 43.5585 120.095 43.8293 119.426 44.3245C118.757 44.8197 118.262 45.5141 118.012 46.308C117.825 46.8222 117.741 47.3683 117.766 47.915C117.791 48.4616 117.924 48.9979 118.157 49.4929C118.391 49.9879 118.72 50.4317 119.125 50.7989C119.531 51.1661 120.005 51.4493 120.521 51.6322C121.325 51.8806 122.179 51.9154 123 51.7331C127.654 50.6199 127.013 43.3852 121.736 43.5512ZM124.258 48.6299C124.133 48.9483 123.944 49.2377 123.703 49.4799C123.461 49.7221 123.172 49.9119 122.854 50.0376C122.536 50.1633 122.196 50.2221 121.854 50.2103C121.512 50.1986 121.176 50.1166 120.868 49.9693C120.559 49.8221 120.284 49.6129 120.059 49.3547C119.835 49.0965 119.667 48.7949 119.564 48.4686C119.461 48.1423 119.427 47.7984 119.463 47.4584C119.5 47.1183 119.605 46.7893 119.774 46.4919C119.933 46.1789 120.162 45.9065 120.442 45.6961C120.723 45.4856 121.049 45.3427 121.394 45.2784C121.836 45.1774 122.298 45.1996 122.729 45.3427C123.16 45.4848 123.544 45.7425 123.839 46.0878C124.134 46.4331 124.329 46.8527 124.402 47.3009C124.476 47.7488 124.426 48.2084 124.258 48.6299Z" fill="#EBEEEB"/>
<path d="M123.561 45.8053C123.218 45.5136 122.802 45.3209 122.358 45.2477C121.913 45.1746 121.457 45.2239 121.039 45.3903C120.62 45.5566 120.255 45.8338 119.982 46.192C119.709 46.5503 119.539 46.9761 119.489 47.4238C119.44 47.8714 119.514 48.3241 119.702 48.7331C119.891 49.1421 120.187 49.4921 120.559 49.7455C120.932 49.9989 121.366 50.1462 121.816 50.1714C122.265 50.1967 122.713 50.0991 123.112 49.889C123.471 49.7005 123.779 49.4267 124.008 49.0915C124.237 48.7564 124.38 48.3702 124.425 47.9668C124.469 47.5633 124.414 47.1551 124.263 46.7782C124.112 46.4013 123.871 46.0671 123.561 45.8053Z" fill="#47654D"/>
<path d="M3.50776 22.7314L14.4328 28.828C14.7246 28.9905 14.9859 28.5431 14.6948 28.3799L3.76982 22.284C3.4801 22.1208 3.21597 22.5724 3.50776 22.7314Z" fill="#2755A0"/>
<path d="M1.03054 29.7387L14.4178 31.4148C14.7483 31.4563 14.7456 30.937 14.4178 30.8962L1.03054 29.2201C0.700026 29.1786 0.702792 29.6979 1.03054 29.7387Z" fill="#2755A0"/>
<path d="M14.5855 25.7393C14.793 26.0014 15.1567 25.6322 14.9527 25.3729L10.75 20.0286C10.5426 19.7659 10.1789 20.1358 10.3829 20.3951L14.5855 25.7393Z" fill="#2755A0"/>
<path d="M112.765 37.4809V42.8874C113.552 41.2951 114.761 39.9499 116.261 38.9987C117.761 38.0475 119.494 37.527 121.27 37.4941C121.412 37.4885 121.534 37.4885 121.664 37.4865C120.239 37.474 117.686 37.4809 112.765 37.4809Z" fill="#EBEEEB"/>
<path d="M131.883 44.9279C131.422 43.0427 130.409 41.3379 128.974 40.0315C127.539 38.725 125.747 37.8765 123.827 37.5943C118.428 36.869 114.592 39.2538 112.763 42.8874C112.763 47.9579 112.639 49.0158 113.197 50.7541C113.621 52.065 114.346 53.2583 115.314 54.2386C116.282 55.2188 117.466 55.9588 118.771 56.3992C119.69 56.7055 120.651 56.8673 121.62 56.8777C122.292 57.0422 122.312 57.8395 121.587 57.9086C121.598 57.9114 121.609 57.9134 121.62 57.9149C123.842 58.0462 126.048 57.4495 127.901 56.2159C129.714 54.9705 131.058 53.1528 131.717 51.0535C132.258 49.0538 132.315 46.9539 131.883 44.9279ZM121.942 51.8494C121.271 51.866 120.607 51.7175 120.007 51.417C119.406 51.1164 118.889 50.6729 118.501 50.1256C118.113 49.5781 117.865 48.9435 117.78 48.2778C117.695 47.6121 117.775 46.9357 118.013 46.3081C119.112 42.996 123.438 42.7125 125.273 45.1271C125.747 45.7473 126.039 46.488 126.114 47.2652C126.189 48.0424 126.045 48.8251 125.698 49.5247C125.351 50.2243 124.816 50.8129 124.152 51.2237C123.488 51.6346 122.722 51.8513 121.941 51.8494H121.942Z" fill="#667F6B"/>
<path d="M122.124 57.3955C122.125 57.2643 122.074 57.138 121.984 57.0425C121.895 56.947 121.771 56.8895 121.64 56.8818C120.203 56.8576 118.79 56.5084 117.507 55.8605C112.583 53.2903 112.77 48.7654 112.753 45.8461C112.735 42.5783 112.765 36.4209 112.766 24.1607C112.82 21.6073 111.873 19.134 110.128 17.2693C108.383 15.4046 105.978 14.2962 103.426 14.1809C103.502 14.1984 103.572 14.2327 103.633 14.2811C103.693 14.3296 103.742 14.3911 103.775 14.4609C103.809 14.5307 103.826 14.607 103.827 14.6844C103.827 14.7618 103.81 14.8383 103.777 14.9083C103.524 15.4656 102.934 14.9775 100.976 15.523C99.3315 15.9851 97.8583 16.9177 96.7374 18.2062C95.6165 19.4947 94.8968 21.0828 94.6668 22.775C94.4469 24.4449 94.7359 29.2816 94.4905 31.2799C94.2712 32.9689 93.6163 34.5718 92.5901 35.931C91.5639 37.2903 90.2016 38.3591 88.6373 39.0325C86.1646 40.105 84.7762 39.856 78.6997 39.856C78.6997 40.7978 78.6879 48.2185 78.7225 48.7336C78.857 50.8423 79.6685 52.8513 81.0362 54.4618C82.404 56.0723 84.255 57.1985 86.314 57.6728C87.8801 58.0185 86.5539 57.9134 121.46 57.9134C121.836 57.9148 122.129 57.7807 122.124 57.3955Z" fill="#47654D"/>
<path d="M103.297 14.1677C102.601 14.1531 98.671 14.1635 76.1088 14.1635V29.7731C76.0758 31.3747 76.4776 32.9552 77.2714 34.3466C78.0653 35.7379 79.2215 36.888 80.6171 37.6744C81.9817 38.3769 83.4839 38.7711 85.0175 38.8291C85.1476 38.8421 85.2677 38.9046 85.3529 39.0037C85.4382 39.1029 85.482 39.231 85.4753 39.3615C85.4689 39.4918 85.4131 39.6147 85.3191 39.7052C85.2252 39.7957 85.1003 39.8469 84.9698 39.8483C84.9781 39.8483 84.9843 39.8525 84.9926 39.8525C87.2383 39.7854 89.3939 38.9545 91.1036 37.497C92.8133 36.0395 93.9749 34.0425 94.3964 31.8357C94.8258 29.5947 94.4234 24.805 94.6468 22.8911C94.8833 20.9667 95.7515 19.1751 97.1154 17.7971C98.4793 16.4191 100.262 15.5324 102.184 15.2761C103.251 15.1378 103.59 15.3272 103.774 14.9082C103.812 14.8285 103.829 14.7405 103.823 14.6524C103.818 14.5643 103.79 14.4792 103.742 14.405C103.694 14.3308 103.628 14.27 103.55 14.2285C103.472 14.187 103.385 14.166 103.297 14.1677Z" fill="#EBEEEB"/>
<path d="M85.3366 28.6573C85.4053 28.6573 85.4713 28.6299 85.5199 28.5813C85.5685 28.5327 85.5959 28.4667 85.5959 28.398C85.5959 28.3292 85.5685 28.2632 85.5199 28.2146C85.4713 28.166 85.4053 28.1387 85.3366 28.1387H76.1084V28.6573H85.3366Z" fill="#2755A0"/>
<path d="M85.3366 25.0159C85.4053 25.0159 85.4713 24.9886 85.5199 24.94C85.5685 24.8913 85.5959 24.8254 85.5959 24.7566C85.5959 24.6878 85.5685 24.6219 85.5199 24.5733C85.4713 24.5246 85.4053 24.4973 85.3366 24.4973H76.1084V25.0159H85.3366Z" fill="#2755A0"/>
<path d="M85.3366 21.4038C85.4053 21.4038 85.4713 21.3765 85.5199 21.3279C85.5685 21.2793 85.5959 21.2133 85.5959 21.1445C85.5959 21.0758 85.5685 21.0098 85.5199 20.9612C85.4713 20.9126 85.4053 20.8853 85.3366 20.8853H76.1084V21.4038H85.3366Z" fill="#2755A0"/>
<path d="M84.965 38.8216C83.5179 38.7975 82.0958 38.4407 80.8087 37.7789C79.3609 37.0106 78.1549 35.8554 77.3251 34.442C76.4947 33.029 76.0729 31.4132 76.1068 29.7746C76.1068 8.44184 76.1365 9.48386 76.0307 8.64927C75.7417 6.27833 74.5969 4.09452 72.8113 2.50818C71.0257 0.921837 68.7222 0.0421539 66.3338 0.0344238C67.0944 0.23218 67.0052 1.05985 66.1388 1.09581C65.6769 1.08763 65.2156 1.12936 64.7628 1.22027C60.7177 1.95391 57.6408 4.92232 57.5903 11.2353C57.564 14.5896 57.5903 22.0649 57.5903 39.8574H84.4686C84.8834 39.8574 85.3356 39.9114 85.4539 39.4827C85.4747 39.4063 85.478 39.3263 85.4634 39.2485C85.4488 39.1707 85.4168 39.0972 85.3698 39.0336C85.3227 38.97 85.2619 38.9178 85.1917 38.8811C85.1216 38.8444 85.0441 38.8241 84.965 38.8216Z" fill="#667F6B"/>
<path d="M66.2202 0.0357591C65.3642 0.0191642 60.9029 0.0357591 36.9412 0.0357591C33.553 0.0357591 31.0465 -0.309969 28.1244 1.52031C25.914 2.91309 24.3471 5.12661 23.7682 7.67427C23.417 9.23419 23.5235 5.8585 23.5235 59.149H38.3628C39.0543 59.149 39.3544 59.1601 39.3384 59.9435C39.2054 61.4197 39.3583 62.9076 39.7886 64.3259C40.2888 65.8223 41.1814 67.1571 42.3734 68.1909C43.5653 69.2247 45.0128 69.9196 46.5649 70.2033C47.8745 70.4398 48.232 70.2427 48.5279 70.5089C48.5928 70.5711 48.6403 70.6492 48.6654 70.7355C48.6905 70.8219 48.6925 70.9133 48.671 71.0006C48.6492 71.0878 48.6046 71.1677 48.5418 71.2321C48.479 71.2965 48.4002 71.343 48.3135 71.367C50.7432 71.2309 53.0381 70.2067 54.7621 68.4892C58.1357 65.0506 57.586 61.298 57.586 58.1706C57.586 54.6373 57.5376 10.7914 57.5984 9.43333C57.6914 7.3911 58.4958 5.44572 59.8723 3.93423C61.2488 2.42274 63.1106 1.44036 65.1353 1.1573C66.057 1.03215 66.6205 1.22645 66.7996 0.738277C66.9344 0.499725 66.8024 0.0468224 66.2202 0.0357591Z" fill="#EBEEEB"/>
<path d="M48.6477 70.6708C48.4174 70.1529 47.9279 70.5118 46.2276 70.1322C44.5518 69.7574 43.0221 68.9012 41.8262 67.6689C40.6304 66.4365 39.8206 64.8818 39.4962 63.1955C39.334 62.0802 39.2821 60.9516 39.3414 59.826C39.3019 59.2805 39.1139 59.1657 38.6423 59.1685C34.524 59.192 5.94404 59.1464 5.87973 59.147C5.75633 59.1348 5.63233 59.1635 5.52686 59.2287C5.42139 59.294 5.34032 59.3921 5.29614 59.508C5.26711 59.5849 5.25531 59.6673 5.26157 59.7493C5.14402 61.4275 5.32726 63.1139 5.80229 64.7278C6.26292 66.0575 7.00107 67.2741 7.96776 68.2969C8.93445 69.3196 10.1076 70.125 11.4093 70.6598C12.8971 71.2419 14.4937 71.4937 16.0884 71.3976C49.8861 71.3976 48.1623 71.4121 48.3213 71.3644C48.4263 71.3339 48.5189 71.2707 48.5853 71.1838C48.6518 71.0969 48.6886 70.9911 48.6905 70.8817C48.6915 70.8092 48.6769 70.7373 48.6477 70.6708Z" fill="#667F6B"/>
<path d="M26.9717 53.5917V55.227C26.9717 55.2959 26.999 55.3619 27.0477 55.4106C27.0964 55.4593 27.1625 55.4867 27.2313 55.4867C27.3002 55.4867 27.3662 55.4593 27.4149 55.4106C27.4636 55.3619 27.491 55.2959 27.491 55.227V53.5917C27.4886 53.542 27.472 53.494 27.4431 53.4535C27.4142 53.413 27.3743 53.3816 27.3281 53.3632C27.2818 53.3447 27.2313 53.34 27.1824 53.3495C27.1336 53.359 27.0885 53.3824 27.0526 53.4168C27.0041 53.4625 26.9752 53.5252 26.9717 53.5917Z" fill="#2755A0"/>
<path d="M30.2427 53.5918V55.2271C30.2427 55.2959 30.27 55.3618 30.3186 55.4105C30.3673 55.4591 30.4332 55.4864 30.502 55.4864C30.5707 55.4864 30.6367 55.4591 30.6853 55.4105C30.734 55.3618 30.7613 55.2959 30.7613 55.2271V53.5918C30.7613 53.523 30.734 53.4571 30.6853 53.4085C30.6367 53.3598 30.5707 53.3325 30.502 53.3325C30.4332 53.3325 30.3673 53.3598 30.3186 53.4085C30.27 53.4571 30.2427 53.523 30.2427 53.5918Z" fill="#2755A0"/>
<path d="M33.6914 53.5918V55.2271C33.6914 55.2959 33.7187 55.3618 33.7674 55.4105C33.816 55.4591 33.8819 55.4864 33.9507 55.4864C34.0195 55.4864 34.0854 55.4591 34.1341 55.4105C34.1827 55.3618 34.21 55.2959 34.21 55.2271V53.5918C34.21 53.523 34.1827 53.4571 34.1341 53.4085C34.0854 53.3598 34.0195 53.3325 33.9507 53.3325C33.8819 53.3325 33.816 53.3598 33.7674 53.4085C33.7187 53.4571 33.6914 53.523 33.6914 53.5918Z" fill="#2755A0"/>
<path d="M37.0415 53.5917V55.227C37.0415 55.2958 37.0689 55.3619 37.1176 55.4106C37.1662 55.4593 37.2323 55.4866 37.3011 55.4866C37.37 55.4866 37.436 55.4593 37.4847 55.4106C37.5334 55.3619 37.5608 55.2958 37.5608 55.227V53.5917C37.5608 53.5228 37.5334 53.4568 37.4847 53.4081C37.436 53.3594 37.37 53.332 37.3011 53.332C37.2323 53.332 37.1662 53.3594 37.1176 53.4081C37.0689 53.4568 37.0415 53.5228 37.0415 53.5917Z" fill="#2755A0"/>
<path d="M40.2974 53.5918V55.2271C40.2974 55.2959 40.3247 55.3618 40.3733 55.4105C40.4219 55.4591 40.4879 55.4864 40.5567 55.4864C40.6254 55.4864 40.6914 55.4591 40.74 55.4105C40.7886 55.3618 40.816 55.2959 40.816 55.2271V53.5918C40.816 53.523 40.7886 53.4571 40.74 53.4085C40.6914 53.3598 40.6254 53.3325 40.5567 53.3325C40.4879 53.3325 40.4219 53.3598 40.3733 53.4085C40.3247 53.4571 40.2974 53.523 40.2974 53.5918Z" fill="#2755A0"/>
<path d="M43.5684 53.5918V55.2271C43.5684 55.2959 43.5957 55.3618 43.6443 55.4105C43.6929 55.4591 43.7589 55.4864 43.8277 55.4864C43.8964 55.4864 43.9624 55.4591 44.011 55.4105C44.0596 55.3618 44.087 55.2959 44.087 55.2271V53.5918C44.087 53.523 44.0596 53.4571 44.011 53.4085C43.9624 53.3598 43.8964 53.3325 43.8277 53.3325C43.7589 53.3325 43.6929 53.3598 43.6443 53.4085C43.5957 53.4571 43.5684 53.523 43.5684 53.5918Z" fill="#2755A0"/>
<path d="M47.0186 53.5918V55.2271C47.0186 55.2959 47.0459 55.3618 47.0945 55.4105C47.1431 55.4591 47.2091 55.4864 47.2779 55.4864C47.3466 55.4864 47.4126 55.4591 47.4612 55.4105C47.5098 55.3618 47.5371 55.2959 47.5371 55.2271V53.5918C47.5371 53.523 47.5098 53.4571 47.4612 53.4085C47.4126 53.3598 47.3466 53.3325 47.2779 53.3325C47.2091 53.3325 47.1431 53.3598 47.0945 53.4085C47.0459 53.4571 47.0186 53.523 47.0186 53.5918Z" fill="#2755A0"/>
<path d="M50.3667 53.5918V55.2271C50.3667 55.2959 50.394 55.3618 50.4426 55.4105C50.4913 55.4591 50.5572 55.4864 50.626 55.4864C50.6948 55.4864 50.7607 55.4591 50.8093 55.4105C50.858 55.3618 50.8853 55.2959 50.8853 55.2271V53.5918C50.8853 53.523 50.858 53.4571 50.8093 53.4085C50.7607 53.3598 50.6948 53.3325 50.626 53.3325C50.5572 53.3325 50.4913 53.3598 50.4426 53.4085C50.394 53.4571 50.3667 53.523 50.3667 53.5918Z" fill="#2755A0"/>
<path d="M53.6641 53.5918V55.2271C53.6641 55.296 53.6914 55.362 53.7401 55.4107C53.7888 55.4594 53.8548 55.4868 53.9237 55.4868C53.9926 55.4868 54.0586 55.4594 54.1073 55.4107C54.156 55.362 54.1833 55.296 54.1833 55.2271V53.5918C54.1833 53.523 54.156 53.4571 54.1074 53.4085C54.0588 53.3598 53.9928 53.3325 53.924 53.3325C53.8553 53.3325 53.7893 53.3598 53.7407 53.4085C53.6921 53.4571 53.6648 53.523 53.6648 53.5918H53.6641Z" fill="#2755A0"/>
<path d="M26.9717 15.4331V17.0691C26.9751 17.1356 27.004 17.1983 27.0523 17.2442C27.1006 17.2901 27.1647 17.3157 27.2313 17.3157C27.298 17.3157 27.362 17.2901 27.4104 17.2442C27.4587 17.1983 27.4875 17.1356 27.491 17.0691V15.4331C27.4875 15.3666 27.4587 15.3039 27.4104 15.258C27.362 15.2121 27.298 15.1865 27.2313 15.1865C27.1647 15.1865 27.1006 15.2121 27.0523 15.258C27.004 15.3039 26.9751 15.3666 26.9717 15.4331Z" fill="#2755A0"/>
<path d="M30.2427 15.4331V17.0691C30.2427 17.1379 30.27 17.2038 30.3186 17.2525C30.3673 17.3011 30.4332 17.3284 30.502 17.3284C30.5707 17.3284 30.6367 17.3011 30.6853 17.2525C30.734 17.2038 30.7613 17.1379 30.7613 17.0691V15.4331C30.7613 15.3644 30.734 15.2984 30.6853 15.2498C30.6367 15.2011 30.5707 15.1738 30.502 15.1738C30.4332 15.1738 30.3673 15.2011 30.3186 15.2498C30.27 15.2984 30.2427 15.3644 30.2427 15.4331Z" fill="#2755A0"/>
<path d="M34.21 17.0684V15.4331C34.21 15.3644 34.1827 15.2984 34.1341 15.2498C34.0854 15.2011 34.0195 15.1738 33.9507 15.1738C33.8819 15.1738 33.816 15.2011 33.7674 15.2498C33.7187 15.2984 33.6914 15.3644 33.6914 15.4331V17.0691C33.6914 17.1379 33.7187 17.2038 33.7674 17.2525C33.816 17.3011 33.8819 17.3284 33.9507 17.3284C34.0195 17.3284 34.0854 17.3011 34.1341 17.2525C34.1827 17.2038 34.21 17.1379 34.21 17.0691V17.0684Z" fill="#2755A0"/>
<path d="M37.5608 17.0691V15.4331C37.5574 15.3666 37.5285 15.3039 37.4802 15.258C37.4319 15.2121 37.3678 15.1865 37.3011 15.1865C37.2345 15.1865 37.1704 15.2121 37.1221 15.258C37.0738 15.3039 37.0449 15.3666 37.0415 15.4331V17.0691C37.0449 17.1356 37.0738 17.1983 37.1221 17.2442C37.1704 17.2901 37.2345 17.3157 37.3011 17.3157C37.3678 17.3157 37.4319 17.2901 37.4802 17.2442C37.5285 17.1983 37.5574 17.1356 37.5608 17.0691Z" fill="#2755A0"/>
<path d="M40.8194 17.0684V15.4331C40.8194 15.3644 40.7921 15.2984 40.7434 15.2498C40.6948 15.2011 40.6288 15.1738 40.5601 15.1738C40.4913 15.1738 40.4254 15.2011 40.3767 15.2498C40.3281 15.2984 40.3008 15.3644 40.3008 15.4331V17.0691C40.3008 17.1379 40.3281 17.2038 40.3767 17.2525C40.4254 17.3011 40.4913 17.3284 40.5601 17.3284C40.6288 17.3284 40.6948 17.3011 40.7434 17.2525C40.7921 17.2038 40.8194 17.1379 40.8194 17.0691V17.0684Z" fill="#2755A0"/>
<path d="M44.087 17.0684V15.4331C44.087 15.3644 44.0596 15.2984 44.011 15.2498C43.9624 15.2011 43.8964 15.1738 43.8277 15.1738C43.7589 15.1738 43.6929 15.2011 43.6443 15.2498C43.5957 15.2984 43.5684 15.3644 43.5684 15.4331V17.0691C43.5684 17.1379 43.5957 17.2038 43.6443 17.2525C43.6929 17.3011 43.7589 17.3284 43.8277 17.3284C43.8964 17.3284 43.9624 17.3011 44.011 17.2525C44.0596 17.2038 44.087 17.1379 44.087 17.0691V17.0684Z" fill="#2755A0"/>
<path d="M47.0186 15.4331V17.0691C47.0186 17.1379 47.0459 17.2038 47.0945 17.2525C47.1431 17.3011 47.2091 17.3284 47.2779 17.3284C47.3466 17.3284 47.4126 17.3011 47.4612 17.2525C47.5098 17.2038 47.5371 17.1379 47.5371 17.0691V15.4331C47.5371 15.3644 47.5098 15.2984 47.4612 15.2498C47.4126 15.2011 47.3466 15.1738 47.2779 15.1738C47.2091 15.1738 47.1431 15.2011 47.0945 15.2498C47.0459 15.2984 47.0186 15.3644 47.0186 15.4331Z" fill="#2755A0"/>
<path d="M50.8853 17.0684V15.4331C50.8853 15.3644 50.858 15.2984 50.8093 15.2498C50.7607 15.2011 50.6948 15.1738 50.626 15.1738C50.5572 15.1738 50.4913 15.2011 50.4426 15.2498C50.394 15.2984 50.3667 15.3644 50.3667 15.4331V17.0691C50.3667 17.1379 50.394 17.2038 50.4426 17.2525C50.4913 17.3011 50.5572 17.3284 50.626 17.3284C50.6948 17.3284 50.7607 17.3011 50.8093 17.2525C50.858 17.2038 50.8853 17.1379 50.8853 17.0691V17.0684Z" fill="#2755A0"/>
<path d="M54.1841 17.0692V15.4332C54.1793 15.3677 54.1499 15.3064 54.1018 15.2617C54.0537 15.217 53.9905 15.1921 53.9248 15.1921C53.8592 15.1921 53.7959 15.217 53.7478 15.2617C53.6997 15.3064 53.6703 15.3677 53.6655 15.4332V17.0692C53.6703 17.1347 53.6997 17.1959 53.7478 17.2406C53.7959 17.2853 53.8592 17.3102 53.9248 17.3102C53.9905 17.3102 54.0537 17.2853 54.1018 17.2406C54.1499 17.1959 54.1793 17.1347 54.1841 17.0692Z" fill="#2755A0"/>
<path d="M47.4611 41.9109L40.6593 35.1091L47.4611 28.3072C47.4852 28.2832 47.5044 28.2546 47.5174 28.2231C47.5305 28.1917 47.5372 28.1579 47.5373 28.1239C47.5373 28.0898 47.5306 28.0561 47.5176 28.0246C47.5046 27.9931 47.4855 27.9645 47.4615 27.9404C47.4374 27.9163 47.4088 27.8972 47.3774 27.8841C47.3459 27.871 47.3122 27.8643 47.2781 27.8643C47.2441 27.8642 47.2103 27.8709 47.1789 27.8839C47.1474 27.8969 47.1188 27.916 47.0947 27.9401L40.2928 34.7419L33.4903 27.9401C33.4411 27.8943 33.3761 27.8693 33.3089 27.8705C33.2417 27.8717 33.1777 27.8989 33.1301 27.9464C33.0826 27.9939 33.0554 28.058 33.0542 28.1252C33.0531 28.1924 33.078 28.2574 33.1238 28.3065L39.9256 35.1091L33.1238 41.9109C33.078 41.9601 33.0531 42.0251 33.0542 42.0923C33.0554 42.1594 33.0826 42.2235 33.1301 42.271C33.1777 42.3185 33.2417 42.3458 33.3089 42.3469C33.3761 42.3481 33.4411 42.3232 33.4903 42.2774L40.2928 35.4755L47.0947 42.2774C47.1439 42.3229 47.2087 42.3479 47.2758 42.3472C47.3257 42.3458 47.3742 42.3302 47.4154 42.302C47.4567 42.2739 47.489 42.2345 47.5085 42.1886C47.528 42.1426 47.534 42.092 47.5255 42.0428C47.5171 41.9936 47.4948 41.9478 47.4611 41.9109Z" fill="#2755A0"/>
<path d="M33.3067 11.2456H47.2741C47.3428 11.2456 47.4088 11.2183 47.4574 11.1697C47.506 11.1211 47.5334 11.0551 47.5334 10.9863C47.5334 10.9176 47.506 10.8516 47.4574 10.803C47.4088 10.7544 47.3428 10.7271 47.2741 10.7271H33.3067C33.2379 10.7271 33.1719 10.7544 33.1233 10.803C33.0747 10.8516 33.0474 10.9176 33.0474 10.9863C33.0474 11.0551 33.0747 11.1211 33.1233 11.1697C33.1719 11.2183 33.2379 11.2456 33.3067 11.2456Z" fill="#2755A0"/>
<path d="M33.3067 7.60306H47.2741C47.3428 7.60306 47.4088 7.57574 47.4574 7.52712C47.506 7.47849 47.5334 7.41254 47.5334 7.34377C47.5334 7.275 47.506 7.20904 47.4574 7.16042C47.4088 7.11179 47.3428 7.08447 47.2741 7.08447H33.3067C33.2379 7.08447 33.1719 7.11179 33.1233 7.16042C33.0747 7.20904 33.0474 7.275 33.0474 7.34377C33.0474 7.41254 33.0747 7.47849 33.1233 7.52712C33.1719 7.57574 33.2379 7.60306 33.3067 7.60306Z" fill="#2755A0"/>
<path d="M3.50776 22.7314L14.4328 28.828C14.7246 28.9905 14.9859 28.5431 14.6948 28.3799L3.76982 22.284C3.4801 22.1208 3.21597 22.5724 3.50776 22.7314Z" fill="black"/>
<path d="M1.03054 29.7387L14.4178 31.4148C14.7483 31.4563 14.7456 30.937 14.4178 30.8962L1.03054 29.2201C0.700026 29.1786 0.702792 29.6979 1.03054 29.7387Z" fill="black"/>
<path d="M14.5855 25.7393C14.793 26.0014 15.1567 25.6322 14.9527 25.3729L10.75 20.0286C10.5426 19.7659 10.1789 20.1358 10.3829 20.3951L14.5855 25.7393Z" fill="black"/>
<path d="M123.655 51.5182C126.955 50.1173 126.88 45.2356 123.721 43.8928C122.984 43.5805 122.178 43.4708 121.385 43.5752C120.592 43.6797 119.841 43.9944 119.21 44.4868C118.75 44.8996 118.384 45.4067 118.137 45.9738C117.89 46.5408 117.769 47.1543 117.781 47.7726C117.792 48.3908 117.937 48.9992 118.204 49.5566C118.472 50.114 118.856 50.6073 119.332 51.0031C119.948 51.4512 120.669 51.7339 121.426 51.824C122.183 51.9142 122.951 51.8089 123.655 51.5182ZM122.513 51.3039C121.95 51.408 121.37 51.3755 120.822 51.2093C120.273 51.043 119.773 50.7477 119.363 50.3483C118.952 49.9485 118.644 49.4561 118.464 48.9125C118.283 48.3689 118.236 47.79 118.325 47.2243C118.401 46.4851 118.708 45.7888 119.204 45.2349C119.699 44.6818 120.357 44.2994 121.084 44.1424C126.352 43.0693 127.206 50.7334 122.512 51.3039H122.513Z" fill="black"/>
<path d="M124.377 47.283C124.298 46.813 124.085 46.3756 123.764 46.0234C123.443 45.6712 123.027 45.419 122.566 45.2971C122.106 45.1752 121.619 45.189 121.166 45.3368C120.713 45.4846 120.312 45.7602 120.011 46.1303C119.711 46.5005 119.524 46.9495 119.472 47.4235C119.421 47.8975 119.508 48.3762 119.722 48.8021C119.935 49.2281 120.267 49.5835 120.679 49.8248C121.089 50.0668 121.561 50.185 122.037 50.165C122.391 50.1592 122.74 50.0761 123.058 49.9216C123.376 49.767 123.657 49.5447 123.88 49.2703C124.103 48.9953 124.263 48.6749 124.349 48.3316C124.434 47.9883 124.444 47.6304 124.377 47.283ZM123.846 48.2047C123.764 48.4957 123.617 48.7642 123.416 48.9898C123.215 49.2154 122.966 49.3921 122.686 49.5064C122.406 49.6207 122.104 49.6697 121.803 49.6495C121.501 49.6293 121.208 49.5405 120.946 49.3899C120.596 49.1888 120.315 48.8856 120.141 48.5207C119.989 48.1522 119.945 47.7477 120.014 47.3549C120.083 46.9621 120.263 46.5972 120.533 46.3032C120.839 45.9919 121.24 45.7908 121.672 45.7315C122.105 45.6721 122.545 45.7578 122.923 45.9751C123.302 46.1925 123.598 46.5292 123.765 46.9326C123.932 47.336 123.96 47.7834 123.846 48.2047Z" fill="black"/>
<path d="M131.883 44.9279C131.326 42.6794 129.996 40.6985 128.125 39.3326C125.258 37.2299 122.853 37.4809 119.311 37.4809H112.765V24.1628C112.791 22.853 112.554 21.5513 112.068 20.3347C111.582 19.118 110.857 18.0112 109.936 17.0795C109.016 16.1475 107.918 15.4095 106.707 14.909C105.497 14.4085 104.198 14.1558 102.888 14.1657H76.108C76.108 9.67127 76.1267 9.40298 76.0313 8.64999C75.8605 7.2865 75.4089 5.97322 74.705 4.79305C72.9923 1.92904 70.0522 0.0427445 65.665 0.0351385C59.3527 0.0240752 36.9412 0.0351385 36.9412 0.0351385C35.3155 -0.0318774 33.6873 -0.00301665 32.065 0.12157C30.0736 0.375164 28.2086 1.2362 26.7239 2.58751C25.2392 3.93882 24.207 5.71476 23.7676 7.67365C23.4218 9.22528 23.5228 5.83715 23.5228 59.1484C23.5228 59.1484 6.31869 59.1415 5.87477 59.1484C5.75139 59.1363 5.62744 59.165 5.52199 59.2303C5.41655 59.2955 5.33545 59.3935 5.29118 59.5093C5.2621 59.5863 5.2503 59.6687 5.25661 59.7507C5.13925 61.4302 5.32236 63.1173 5.79733 64.7326C6.37866 66.4128 7.40161 67.9055 8.75879 69.054C10.116 70.2025 11.7573 70.9645 13.5105 71.2599C14.946 71.477 13.6537 71.4024 46.8961 71.4024C49.9668 71.4024 52.6642 70.6314 54.7648 68.4907C56.3354 66.8871 57.3144 64.7973 57.541 62.5642C57.6212 61.7455 57.5887 64.1594 57.5887 39.8588H78.6961C78.6961 48.4619 78.5247 49.2848 79.2431 51.3564C79.7935 52.9197 80.73 54.3186 81.9655 55.4233C83.201 56.528 84.6955 57.3027 86.3104 57.6756C87.2792 57.8616 88.2659 57.9425 89.2519 57.9162C124.654 57.93 123.126 58.0593 124.948 57.5663C130.001 56.1979 133.31 51.0604 131.883 44.9279ZM118.35 37.9995C115.926 38.8471 113.925 40.5991 112.763 42.8888V37.9995H118.35ZM76.1073 28.6573H85.3265C85.3953 28.6573 85.4612 28.6299 85.5098 28.5813C85.5585 28.5327 85.5858 28.4667 85.5858 28.398C85.5858 28.3292 85.5585 28.2632 85.5098 28.2146C85.4612 28.166 85.3953 28.1387 85.3265 28.1387H76.1073V25.0161H85.3265C85.3953 25.0161 85.4612 24.9887 85.5098 24.9401C85.5585 24.8915 85.5858 24.8255 85.5858 24.7568C85.5858 24.688 85.5585 24.622 85.5098 24.5734C85.4612 24.5248 85.3953 24.4975 85.3265 24.4975H76.1073V21.4039H85.3265C85.3953 21.4039 85.4612 21.3766 85.5098 21.3279C85.5585 21.2793 85.5858 21.2134 85.5858 21.1446C85.5858 21.0758 85.5585 21.0099 85.5098 20.9612C85.4612 20.9126 85.3953 20.8853 85.3265 20.8853H76.1073V14.6822H102.609C97.7402 15.3931 95.0027 18.4853 94.2691 21.9951C94.0632 23.3109 93.9937 24.6444 94.0617 25.9744C94.0617 29.9503 94.4765 32.9809 91.7978 36.089C89.5098 38.7421 84.2789 39.8312 80.458 37.584C79.1343 36.8023 78.0374 35.689 77.2754 34.354C76.5134 33.0189 76.1127 31.5082 76.1128 29.971C76.1115 29.9019 76.1073 28.9864 76.1073 28.6573ZM17.8425 70.8817C16.1692 70.9923 14.4889 70.8955 12.8398 70.5948C10.7763 70.0674 8.95297 68.8551 7.66819 67.1565C6.38342 65.4578 5.71333 63.3733 5.7676 61.2442C5.7676 60.8293 5.77589 59.7078 5.77589 59.7078C5.77589 59.7078 38.6546 59.649 38.7245 59.667C38.8275 59.6933 38.8047 59.667 38.8047 59.7921C38.8047 61.9986 38.7417 63.4064 39.6538 65.4116C40.2554 66.7143 41.1468 67.8623 42.2599 68.7679C43.3729 69.6735 44.6782 70.3128 46.076 70.6369C46.725 70.7745 47.385 70.8534 48.048 70.8727C47.7818 70.8879 49.5941 70.8817 17.8425 70.8817ZM57.1628 8.50202C57.0307 9.44931 57.0708 6.32947 57.0708 59.499C57.144 60.8275 57.0803 62.16 56.8807 63.4755C56.6558 64.5496 56.2446 65.576 55.6658 66.5082C53.328 70.2774 50.2891 70.4668 48.7008 70.3949C45.8312 70.2642 43.4962 69.6343 41.4702 67.2834C41.1642 66.9308 40.8867 66.5544 40.6405 66.1577C38.925 63.3766 39.4332 60.913 39.3267 59.8025C39.2735 59.2493 39.0882 59.1802 38.7314 59.165C37.9168 59.1249 35.0355 59.1484 24.0421 59.1484V10.2701C24.0144 8.95077 24.2378 7.63839 24.701 6.40276C25.1993 5.13843 25.9702 3.99956 26.959 3.06731C27.9478 2.13507 29.13 1.43241 30.4215 1.0094C32.3575 0.378101 31.2353 0.553039 65.7873 0.553039C63.6568 0.689923 61.6379 1.55404 60.068 3.00091C58.4982 4.44778 57.4726 6.38971 57.1628 8.50202ZM57.5894 39.3409C57.5894 7.77668 57.5445 9.60835 57.6697 8.6735C58.9979 -1.20879 73.8836 -1.65478 75.4809 8.43149C75.5766 9.18809 75.6126 9.95104 75.5887 10.7133C75.5887 31.4867 75.5064 30.6452 75.8245 32.0585C76.2821 33.9414 77.2958 35.643 78.7338 36.9418C80.1717 38.2407 81.9673 39.0766 83.8869 39.3409H57.5894ZM87.4818 57.3347C85.8992 57.1631 84.3874 56.5873 83.0917 55.6626C81.796 54.738 80.76 53.4955 80.0832 52.0547C79.0301 49.7992 79.2168 48.8906 79.2168 39.8595H83.7009C90.5899 39.8595 94.2456 35.511 94.5485 30.5567C94.6549 28.9539 94.5298 24.3536 94.6141 23.2618C94.7754 21.1468 95.7051 19.1639 97.2278 17.6873C102.483 12.5878 112.06 15.5051 112.243 23.759C112.298 26.2268 112.089 47.8217 112.286 49.2737C112.588 51.3758 113.583 53.317 115.113 54.7896C116.644 56.2621 118.622 57.1816 120.734 57.4025C86.1991 57.3976 88.4706 57.4253 87.4818 57.3326V57.3347ZM123.567 56.989C118.008 57.4612 112.772 54.378 112.762 46.9311C112.762 43.9813 112.713 44.2925 112.921 43.7759C114.235 40.5123 117.313 37.9898 121.919 38.003C123.505 37.9338 125.082 38.263 126.508 38.9613C127.878 39.6475 129.058 40.6618 129.942 41.9139C130.827 43.1661 131.388 44.6173 131.576 46.1386C132.322 51.6779 129.206 56.5063 123.567 56.9855V56.989Z" fill="black"/>
<path d="M26.9717 53.5917V55.227C26.9717 55.2959 26.999 55.3619 27.0477 55.4106C27.0964 55.4593 27.1625 55.4867 27.2313 55.4867C27.3002 55.4867 27.3662 55.4593 27.4149 55.4106C27.4636 55.3619 27.491 55.2959 27.491 55.227V53.5917C27.4886 53.542 27.472 53.494 27.4431 53.4535C27.4142 53.413 27.3743 53.3816 27.3281 53.3632C27.2818 53.3447 27.2313 53.34 27.1824 53.3495C27.1336 53.359 27.0885 53.3824 27.0526 53.4168C27.0041 53.4625 26.9752 53.5252 26.9717 53.5917Z" fill="black"/>
<path d="M30.2427 53.5918V55.2271C30.2427 55.2959 30.27 55.3618 30.3186 55.4105C30.3673 55.4591 30.4332 55.4864 30.502 55.4864C30.5707 55.4864 30.6367 55.4591 30.6853 55.4105C30.734 55.3618 30.7613 55.2959 30.7613 55.2271V53.5918C30.7613 53.523 30.734 53.4571 30.6853 53.4085C30.6367 53.3598 30.5707 53.3325 30.502 53.3325C30.4332 53.3325 30.3673 53.3598 30.3186 53.4085C30.27 53.4571 30.2427 53.523 30.2427 53.5918Z" fill="black"/>
<path d="M33.6914 53.5918V55.2271C33.6914 55.2959 33.7187 55.3618 33.7674 55.4105C33.816 55.4591 33.8819 55.4864 33.9507 55.4864C34.0195 55.4864 34.0854 55.4591 34.1341 55.4105C34.1827 55.3618 34.21 55.2959 34.21 55.2271V53.5918C34.21 53.523 34.1827 53.4571 34.1341 53.4085C34.0854 53.3598 34.0195 53.3325 33.9507 53.3325C33.8819 53.3325 33.816 53.3598 33.7674 53.4085C33.7187 53.4571 33.6914 53.523 33.6914 53.5918Z" fill="black"/>
<path d="M37.0415 53.5919V55.2272C37.0415 55.2961 37.0689 55.3621 37.1176 55.4108C37.1662 55.4595 37.2323 55.4869 37.3011 55.4869C37.37 55.4869 37.436 55.4595 37.4847 55.4108C37.5334 55.3621 37.5608 55.2961 37.5608 55.2272V53.5919C37.5608 53.5231 37.5334 53.457 37.4847 53.4083C37.436 53.3596 37.37 53.3323 37.3011 53.3323C37.2323 53.3323 37.1662 53.3596 37.1176 53.4083C37.0689 53.457 37.0415 53.5231 37.0415 53.5919Z" fill="black"/>
<path d="M40.2974 53.5918V55.2271C40.2974 55.2959 40.3247 55.3618 40.3733 55.4105C40.4219 55.4591 40.4879 55.4864 40.5567 55.4864C40.6254 55.4864 40.6914 55.4591 40.74 55.4105C40.7886 55.3618 40.816 55.2959 40.816 55.2271V53.5918C40.816 53.523 40.7886 53.4571 40.74 53.4085C40.6914 53.3598 40.6254 53.3325 40.5567 53.3325C40.4879 53.3325 40.4219 53.3598 40.3733 53.4085C40.3247 53.4571 40.2974 53.523 40.2974 53.5918Z" fill="black"/>
<path d="M43.5684 53.5918V55.2271C43.5684 55.2959 43.5957 55.3618 43.6443 55.4105C43.6929 55.4591 43.7589 55.4864 43.8277 55.4864C43.8964 55.4864 43.9624 55.4591 44.011 55.4105C44.0596 55.3618 44.087 55.2959 44.087 55.2271V53.5918C44.087 53.523 44.0596 53.4571 44.011 53.4085C43.9624 53.3598 43.8964 53.3325 43.8277 53.3325C43.7589 53.3325 43.6929 53.3598 43.6443 53.4085C43.5957 53.4571 43.5684 53.523 43.5684 53.5918Z" fill="black"/>
<path d="M47.0186 53.5918V55.2271C47.0186 55.2959 47.0459 55.3618 47.0945 55.4105C47.1431 55.4591 47.2091 55.4864 47.2779 55.4864C47.3466 55.4864 47.4126 55.4591 47.4612 55.4105C47.5098 55.3618 47.5371 55.2959 47.5371 55.2271V53.5918C47.5371 53.523 47.5098 53.4571 47.4612 53.4085C47.4126 53.3598 47.3466 53.3325 47.2779 53.3325C47.2091 53.3325 47.1431 53.3598 47.0945 53.4085C47.0459 53.4571 47.0186 53.523 47.0186 53.5918Z" fill="black"/>
<path d="M50.8853 55.2271V53.5918C50.8853 53.523 50.858 53.4571 50.8093 53.4085C50.7607 53.3598 50.6948 53.3325 50.626 53.3325C50.5572 53.3325 50.4913 53.3598 50.4426 53.4085C50.394 53.4571 50.3667 53.523 50.3667 53.5918V55.2271C50.3667 55.2959 50.394 55.3618 50.4426 55.4105C50.4913 55.4591 50.5572 55.4864 50.626 55.4864C50.6948 55.4864 50.7607 55.4591 50.8093 55.4105C50.858 55.3618 50.8853 55.2959 50.8853 55.2271Z" fill="black"/>
<path d="M54.1841 55.2271V53.5918C54.1841 53.523 54.1568 53.4571 54.1082 53.4085C54.0595 53.3598 53.9936 53.3325 53.9248 53.3325C53.8561 53.3325 53.7901 53.3598 53.7415 53.4085C53.6928 53.4571 53.6655 53.523 53.6655 53.5918V55.2271C53.6655 55.2959 53.6928 55.3618 53.7415 55.4105C53.7901 55.4591 53.8561 55.4864 53.9248 55.4864C53.9936 55.4864 54.0595 55.4591 54.1082 55.4105C54.1568 55.3618 54.1841 55.2959 54.1841 55.2271Z" fill="black"/>
<path d="M26.9717 15.4331V17.0691C26.9751 17.1356 27.004 17.1983 27.0523 17.2442C27.1006 17.2901 27.1647 17.3157 27.2313 17.3157C27.298 17.3157 27.362 17.2901 27.4104 17.2442C27.4587 17.1983 27.4875 17.1356 27.491 17.0691V15.4331C27.4875 15.3666 27.4587 15.3039 27.4104 15.258C27.362 15.2121 27.298 15.1865 27.2313 15.1865C27.1647 15.1865 27.1006 15.2121 27.0523 15.258C27.004 15.3039 26.9751 15.3666 26.9717 15.4331Z" fill="black"/>
<path d="M30.2427 15.4331V17.0691C30.2427 17.1379 30.27 17.2038 30.3186 17.2525C30.3673 17.3011 30.4332 17.3284 30.502 17.3284C30.5707 17.3284 30.6367 17.3011 30.6853 17.2525C30.734 17.2038 30.7613 17.1379 30.7613 17.0691V15.4331C30.7613 15.3644 30.734 15.2984 30.6853 15.2498C30.6367 15.2011 30.5707 15.1738 30.502 15.1738C30.4332 15.1738 30.3673 15.2011 30.3186 15.2498C30.27 15.2984 30.2427 15.3644 30.2427 15.4331Z" fill="black"/>
<path d="M33.6914 15.4331V17.0691C33.6914 17.1379 33.7187 17.2038 33.7674 17.2525C33.816 17.3011 33.8819 17.3284 33.9507 17.3284C34.0195 17.3284 34.0854 17.3011 34.1341 17.2525C34.1827 17.2038 34.21 17.1379 34.21 17.0691V15.4331C34.21 15.3644 34.1827 15.2984 34.1341 15.2498C34.0854 15.2011 34.0195 15.1738 33.9507 15.1738C33.8819 15.1738 33.816 15.2011 33.7674 15.2498C33.7187 15.2984 33.6914 15.3644 33.6914 15.4331Z" fill="black"/>
<path d="M37.0415 15.4331V17.0691C37.0449 17.1356 37.0738 17.1983 37.1221 17.2442C37.1704 17.2901 37.2345 17.3157 37.3011 17.3157C37.3678 17.3157 37.4319 17.2901 37.4802 17.2442C37.5285 17.1983 37.5574 17.1356 37.5608 17.0691V15.4331C37.5574 15.3666 37.5285 15.3039 37.4802 15.258C37.4319 15.2121 37.3678 15.1865 37.3011 15.1865C37.2345 15.1865 37.1704 15.2121 37.1221 15.258C37.0738 15.3039 37.0449 15.3666 37.0415 15.4331Z" fill="black"/>
<path d="M40.2974 15.4331V17.0691C40.2974 17.1379 40.3247 17.2038 40.3733 17.2525C40.4219 17.3011 40.4879 17.3284 40.5567 17.3284C40.6254 17.3284 40.6914 17.3011 40.74 17.2525C40.7886 17.2038 40.816 17.1379 40.816 17.0691V15.4331C40.816 15.3644 40.7886 15.2984 40.74 15.2498C40.6914 15.2011 40.6254 15.1738 40.5567 15.1738C40.4879 15.1738 40.4219 15.2011 40.3733 15.2498C40.3247 15.2984 40.2974 15.3644 40.2974 15.4331Z" fill="black"/>
<path d="M43.5684 15.4331V17.0691C43.5684 17.1379 43.5957 17.2038 43.6443 17.2525C43.6929 17.3011 43.7589 17.3284 43.8277 17.3284C43.8964 17.3284 43.9624 17.3011 44.011 17.2525C44.0596 17.2038 44.087 17.1379 44.087 17.0691V15.4331C44.087 15.3644 44.0596 15.2984 44.011 15.2498C43.9624 15.2011 43.8964 15.1738 43.8277 15.1738C43.7589 15.1738 43.6929 15.2011 43.6443 15.2498C43.5957 15.2984 43.5684 15.3644 43.5684 15.4331Z" fill="black"/>
<path d="M47.0186 15.4331V17.0691C47.0186 17.1379 47.0459 17.2038 47.0945 17.2525C47.1431 17.3011 47.2091 17.3284 47.2779 17.3284C47.3466 17.3284 47.4126 17.3011 47.4612 17.2525C47.5098 17.2038 47.5371 17.1379 47.5371 17.0691V15.4331C47.5371 15.3644 47.5098 15.2984 47.4612 15.2498C47.4126 15.2011 47.3466 15.1738 47.2779 15.1738C47.2091 15.1738 47.1431 15.2011 47.0945 15.2498C47.0459 15.2984 47.0186 15.3644 47.0186 15.4331Z" fill="black"/>
<path d="M50.8853 17.0691V15.4331C50.8853 15.3644 50.858 15.2984 50.8093 15.2498C50.7607 15.2011 50.6948 15.1738 50.626 15.1738C50.5572 15.1738 50.4913 15.2011 50.4426 15.2498C50.394 15.2984 50.3667 15.3644 50.3667 15.4331V17.0691C50.3667 17.1379 50.394 17.2038 50.4426 17.2525C50.4913 17.3011 50.5572 17.3284 50.626 17.3284C50.6948 17.3284 50.7607 17.3011 50.8093 17.2525C50.858 17.2038 50.8853 17.1379 50.8853 17.0691Z" fill="black"/>
<path d="M54.1841 17.0692V15.4332C54.1793 15.3677 54.1499 15.3064 54.1018 15.2617C54.0537 15.217 53.9905 15.1921 53.9248 15.1921C53.8592 15.1921 53.7959 15.217 53.7478 15.2617C53.6997 15.3064 53.6703 15.3677 53.6655 15.4332V17.0692C53.6703 17.1347 53.6997 17.1959 53.7478 17.2406C53.7959 17.2853 53.8592 17.3102 53.9248 17.3102C53.9905 17.3102 54.0537 17.2853 54.1018 17.2406C54.1499 17.1959 54.1793 17.1347 54.1841 17.0692Z" fill="black"/>
<path d="M47.4611 41.9112L40.6593 35.1093L47.4611 28.3075C47.4852 28.2834 47.5044 28.2548 47.5174 28.2234C47.5305 28.1919 47.5372 28.1582 47.5373 28.1241C47.5373 28.0901 47.5306 28.0563 47.5176 28.0248C47.5046 27.9934 47.4855 27.9648 47.4615 27.9406C47.4374 27.9165 47.4088 27.8974 47.3774 27.8843C47.3459 27.8713 47.3122 27.8645 47.2781 27.8645C47.2441 27.8645 47.2103 27.8711 47.1789 27.8842C47.1474 27.8972 47.1188 27.9162 47.0947 27.9403L40.2928 34.7421L33.4903 27.9403C33.4411 27.8945 33.3761 27.8696 33.3089 27.8707C33.2417 27.8719 33.1777 27.8991 33.1301 27.9467C33.0826 27.9942 33.0554 28.0583 33.0542 28.1254C33.0531 28.1926 33.078 28.2576 33.1238 28.3068L39.9256 35.1093L33.1238 41.9112C33.078 41.9603 33.0531 42.0253 33.0542 42.0925C33.0554 42.1597 33.0826 42.2238 33.1301 42.2713C33.1777 42.3188 33.2417 42.346 33.3089 42.3472C33.3761 42.3484 33.4411 42.3234 33.4903 42.2776L40.2928 35.4758L47.0947 42.2776C47.1439 42.3232 47.2087 42.3482 47.2758 42.3475C47.3257 42.3461 47.3742 42.3304 47.4154 42.3023C47.4567 42.2741 47.489 42.2348 47.5085 42.1888C47.528 42.1428 47.534 42.0922 47.5255 42.043C47.5171 41.9938 47.4948 41.948 47.4611 41.9112Z" fill="black"/>
<path d="M33.3067 11.2456H47.2741C47.3428 11.2456 47.4088 11.2183 47.4574 11.1697C47.506 11.1211 47.5334 11.0551 47.5334 10.9863C47.5334 10.9176 47.506 10.8516 47.4574 10.803C47.4088 10.7544 47.3428 10.7271 47.2741 10.7271H33.3067C33.2379 10.7271 33.1719 10.7544 33.1233 10.803C33.0747 10.8516 33.0474 10.9176 33.0474 10.9863C33.0474 11.0551 33.0747 11.1211 33.1233 11.1697C33.1719 11.2183 33.2379 11.2456 33.3067 11.2456Z" fill="black"/>
<path d="M33.3067 7.60306H47.2741C47.3428 7.60306 47.4088 7.57574 47.4574 7.52712C47.506 7.47849 47.5334 7.41254 47.5334 7.34377C47.5334 7.275 47.506 7.20904 47.4574 7.16042C47.4088 7.11179 47.3428 7.08447 47.2741 7.08447H33.3067C33.2379 7.08447 33.1719 7.11179 33.1233 7.16042C33.0747 7.20904 33.0474 7.275 33.0474 7.34377C33.0474 7.41254 33.0747 7.47849 33.1233 7.52712C33.1719 7.57574 33.2379 7.60306 33.3067 7.60306Z" fill="black"/>
</svg>
