<svg width="12" height="11" viewBox="0 0 12 11" fill="none" xmlns="http://www.w3.org/2000/svg">
<path d="M1 10.5L8.5 3" stroke="#FFFDF6" stroke-width="0.7"/>
<path d="M2.75 5.25V8.75H6.25L10.25 4.75C10.4836 4.52104 10.6696 4.24803 10.797 3.94676C10.9245 3.64549 10.991 3.32195 10.9926 2.99482C10.9943 2.6677 10.9311 2.3435 10.8067 2.04096C10.6822 1.73842 10.4991 1.46355 10.2678 1.23223C10.0365 1.00092 9.76158 0.81776 9.45904 0.693338C9.1565 0.568916 8.8323 0.505704 8.50518 0.507356C8.17806 0.509008 7.85451 0.575492 7.55324 0.702963C7.25197 0.830435 6.97896 1.01636 6.75 1.25L2.75 5.25Z" stroke="#FFFDF6" stroke-width="0.7"/>
<path d="M6 5.5H9.5" stroke="#FFFDF6" stroke-width="0.7"/>
</svg>
