<svg width="201" height="229" viewBox="0 0 201 229" fill="none" xmlns="http://www.w3.org/2000/svg">
<path d="M133.583 0L152.667 19.0833L114.5 57.25L76.3333 19.0833L95.4167 0H133.583Z" fill="#C7AA3D" fill-opacity="0.51"/>
<path d="M19.0833 76.3333H76.3333V19.0833H47.7083L19.0833 47.7083V76.3333Z" fill="#C7AA3D" fill-opacity="0.51"/>
<path d="M19.0833 152.667L57.25 114.5L19.0833 76.3333L0 95.4167V133.583L19.0833 152.667Z" fill="#C7AA3D" fill-opacity="0.51"/>
<path d="M76.3333 209.917H47.7083L19.0833 181.292V152.667H76.3333V209.917Z" fill="#C7AA3D" fill-opacity="0.51"/>
<path d="M152.667 209.917L133.583 229H95.4167L76.3333 209.917L114.5 171.75L152.667 209.917Z" fill="#C7AA3D" fill-opacity="0.51"/>
<path d="M209.917 152.667V181.292L181.292 209.917H152.667V152.667H209.917Z" fill="#C7AA3D" fill-opacity="0.51"/>
<path d="M209.917 76.3333L229 95.4167V133.583L209.917 152.667L171.75 114.5L209.917 76.3333Z" fill="#C7AA3D" fill-opacity="0.51"/>
<path d="M209.917 76.3333V47.7083L181.292 19.0833H152.667V76.3333H209.917Z" fill="#C7AA3D" fill-opacity="0.51"/>
</svg>
