<svg width="137" height="137" viewBox="0 0 137 137" fill="none" xmlns="http://www.w3.org/2000/svg">
<path d="M79.9167 0L91.3333 11.4167L68.5 34.25L45.6667 11.4167L57.0833 0H79.9167Z" fill="#5E7862"/>
<path d="M11.4167 45.6667H45.6667V11.4167H28.5417L11.4167 28.5417V45.6667Z" fill="#5E7862"/>
<path d="M11.4167 91.3333L34.25 68.5L11.4167 45.6667L0 57.0833V79.9167L11.4167 91.3333Z" fill="#5E7862"/>
<path d="M45.6667 125.583H28.5417L11.4167 108.458V91.3333H45.6667V125.583Z" fill="#5E7862"/>
<path d="M91.3333 125.583L79.9167 137H57.0833L45.6667 125.583L68.5 102.75L91.3333 125.583Z" fill="#5E7862"/>
<path d="M125.583 91.3333V108.458L108.458 125.583H91.3333V91.3333H125.583Z" fill="#5E7862"/>
<path d="M125.583 45.6667L137 57.0833V79.9167L125.583 91.3333L102.75 68.5L125.583 45.6667Z" fill="#5E7862"/>
<path d="M125.583 45.6667V28.5417L108.458 11.4167H91.3333V45.6667H125.583Z" fill="#5E7862"/>
</svg>
