<svg width="24" height="24" viewBox="0 0 24 24" fill="none" xmlns="http://www.w3.org/2000/svg">
<path d="M11.6137 0.672974L0.75 5.90366V8.62494H23.25V5.88922L11.6137 0.672974ZM21.75 7.12494H2.25V6.84622L11.6363 2.32691L21.75 6.86066V7.12494ZM2.25 19.1249H21.75V20.6249H2.25V19.1249ZM0.75 21.7499H23.25V23.2499H0.75V21.7499ZM2.625 10.1249H4.125V17.6249H2.625V10.1249ZM19.875 10.1249H21.375V17.6249H19.875V10.1249ZM15.375 10.1249H16.875V17.6249H15.375V10.1249ZM7.125 10.1249H8.625V17.6249H7.125V10.1249ZM11.25 10.1249H12.75V17.6249H11.25V10.1249Z" fill="#253829"/>
</svg>
