<svg width="152" height="115" viewBox="0 0 152 115" fill="none" xmlns="http://www.w3.org/2000/svg">
<path d="M74.7553 24.2014L86.6218 42.9826L49.0594 66.7156L25.3264 29.1532L44.1076 17.2867L74.7553 24.2014Z" fill="#5E7862"/>
<path d="M-31.0172 64.7528L14.9543 75.1248L25.3264 29.1532L2.34059 23.9672L-25.8312 41.767L-31.0172 64.7528Z" fill="#5E7862"/>
<path d="M-44.8466 126.048L-7.2842 102.315L-31.0172 64.7528L-49.7984 76.6193L-56.7131 107.267L-44.8466 126.048Z" fill="#5E7862"/>
<path d="M-9.24705 182.392L-32.2328 177.206L-50.0326 149.034L-44.8466 126.048L1.12498 136.42L-9.24705 182.392Z" fill="#5E7862"/>
<path d="M52.0484 196.221L33.2672 208.088L2.61947 201.173L-9.24705 182.392L28.3154 158.659L52.0484 196.221Z" fill="#5E7862"/>
<path d="M108.392 160.622L103.206 183.607L75.0342 201.407L52.0484 196.221L62.4204 150.25L108.392 160.622Z" fill="#5E7862"/>
<path d="M122.221 99.3262L134.088 118.107L127.173 148.755L108.392 160.622L84.659 123.059L122.221 99.3262Z" fill="#5E7862"/>
<path d="M122.221 99.3262L127.407 76.3404L109.608 48.1686L86.6218 42.9826L76.2498 88.9542L122.221 99.3262Z" fill="#5E7862"/>
</svg>
