<svg width="126" height="142" viewBox="0 0 126 142" fill="none" xmlns="http://www.w3.org/2000/svg">
<path d="M140.89 -59.7986L152.129 -41.0174L116.553 -17.2844L94.0745 -54.8468L111.863 -66.7133L140.89 -59.7986Z" fill="#5E7862"/>
<path d="M40.7104 -19.2472L84.2509 -8.87519L94.0745 -54.8468L72.3042 -60.0328L45.6222 -42.233L40.7104 -19.2472Z" fill="#5E7862"/>
<path d="M27.6123 42.0482L63.1884 18.3152L40.7104 -19.2472L22.9223 -7.3807L16.3733 23.267L27.6123 42.0482Z" fill="#5E7862"/>
<path d="M61.3293 98.3918L39.5591 93.2058L22.7005 65.034L27.6123 42.0482L71.1529 52.4202L61.3293 98.3918Z" fill="#5E7862"/>
<path d="M119.383 112.221L101.595 124.088L72.5683 117.173L61.3293 98.3918L96.9054 74.6588L119.383 112.221Z" fill="#5E7862"/>
<path d="M172.748 76.6216L167.836 99.6074L141.154 117.407L119.383 112.221L129.207 66.2496L172.748 76.6216Z" fill="#5E7862"/>
<path d="M185.846 15.3262L197.085 34.1074L190.536 64.7551L172.748 76.6216L150.27 39.0592L185.846 15.3262Z" fill="#5E7862"/>
<path d="M185.846 15.3262L190.757 -7.65958L173.899 -35.8314L152.129 -41.0174L142.305 4.95418L185.846 15.3262Z" fill="#5E7862"/>
</svg>
