<svg width="125" height="76" viewBox="0 0 125 76" fill="none" xmlns="http://www.w3.org/2000/svg">
<path d="M82.3029 13.3899L88.8683 23.781L68.0861 36.9119L54.9552 16.1297L65.3464 9.56425L82.3029 13.3899Z" fill="#5E7862" fill-opacity="0.19"/>
<path d="M23.7819 35.8259L49.2167 41.5644L54.9552 16.1297L42.2379 13.2604L26.6512 23.1085L23.7819 35.8259Z" fill="#5E7862" fill-opacity="0.19"/>
<path d="M16.1305 69.7389L36.9127 56.6081L23.7819 35.8259L13.3908 42.3913L9.56513 59.3478L16.1305 69.7389Z" fill="#5E7862" fill-opacity="0.19"/>
<path d="M35.8268 100.912L23.1094 98.0429L13.2613 82.4563L16.1305 69.7389L41.5653 75.4774L35.8268 100.912Z" fill="#5E7862" fill-opacity="0.19"/>
<path d="M69.7398 108.564L59.3487 115.129L42.3922 111.303L35.8268 100.912L56.609 87.7814L69.7398 108.564Z" fill="#5E7862" fill-opacity="0.19"/>
<path d="M100.913 88.8674L98.0438 101.585L82.4572 111.433L69.7398 108.564L75.4783 83.1288L100.913 88.8674Z" fill="#5E7862" fill-opacity="0.19"/>
<path d="M108.564 54.9544L115.13 65.3455L111.304 82.302L100.913 88.8674L87.7823 68.0852L108.564 54.9544Z" fill="#5E7862" fill-opacity="0.19"/>
<path d="M108.564 54.9544L111.434 42.237L101.586 26.6503L88.8683 23.781L83.1297 49.2158L108.564 54.9544Z" fill="#5E7862" fill-opacity="0.19"/>
</svg>
