<svg width="75" height="75" viewBox="0 0 75 75" fill="none" xmlns="http://www.w3.org/2000/svg">
<path d="M14.3219 54.128C11.1031 50.7093 9.375 46.8749 9.375 40.6593C9.375 29.7218 17.0531 19.9187 28.2187 15.0718L31.0094 19.378C20.5875 25.0155 18.55 32.3312 17.7375 36.9437C19.4156 36.0749 21.6125 35.7718 23.7656 35.9718C29.4031 36.4937 33.8469 41.1218 33.8469 46.8749C33.8469 49.7757 32.6945 52.5577 30.6434 54.6089C28.5922 56.6601 25.8102 57.8124 22.9094 57.8124C21.3052 57.7984 19.7198 57.4654 18.2455 56.8329C16.7712 56.2004 15.4375 55.2809 14.3219 54.128ZM45.5719 54.128C42.3531 50.7093 40.625 46.8749 40.625 40.6593C40.625 29.7218 48.3031 19.9187 59.4687 15.0718L62.2594 19.378C51.8375 25.0155 49.8 32.3312 48.9875 36.9437C50.6656 36.0749 52.8625 35.7718 55.0156 35.9718C60.6531 36.4937 65.0969 41.1218 65.0969 46.8749C65.0969 49.7757 63.9445 52.5577 61.8933 54.6089C59.8422 56.6601 57.0602 57.8124 54.1594 57.8124C52.5552 57.7984 50.9698 57.4654 49.4955 56.8329C48.0212 56.2004 46.6875 55.2809 45.5719 54.128Z" fill="#EBDA98"/>
</svg>
