<svg width="184" height="159" viewBox="0 0 184 159" fill="none" xmlns="http://www.w3.org/2000/svg">
<path d="M35.2447 -42.7986L23.3782 -24.0174L60.9406 -0.284368L84.6736 -37.8468L65.8924 -49.7133L35.2447 -42.7986Z" fill="#5E7862"/>
<path d="M141.017 -2.24722L95.0457 8.12481L84.6736 -37.8468L107.659 -43.0328L135.831 -25.233L141.017 -2.24722Z" fill="#5E7862"/>
<path d="M154.847 59.0482L117.284 35.3152L141.017 -2.24722L159.798 9.6193L166.713 40.267L154.847 59.0482Z" fill="#5E7862"/>
<path d="M119.247 115.392L142.233 110.206L160.033 82.034L154.847 59.0482L108.875 69.4202L119.247 115.392Z" fill="#5E7862"/>
<path d="M57.9516 129.221L76.7328 141.088L107.381 134.173L119.247 115.392L81.6846 91.6588L57.9516 129.221Z" fill="#5E7862"/>
<path d="M1.60802 93.6216L6.79403 116.607L34.9658 134.407L57.9516 129.221L47.5796 83.2496L1.60802 93.6216Z" fill="#5E7862"/>
<path d="M-12.2214 32.3262L-24.0879 51.1074L-17.1732 81.7551L1.60802 93.6216L25.341 56.0592L-12.2214 32.3262Z" fill="#5E7862"/>
<path d="M-12.2214 32.3262L-17.4074 9.34041L0.392404 -18.8314L23.3782 -24.0174L33.7502 21.9542L-12.2214 32.3262Z" fill="#5E7862"/>
</svg>
