<svg width="12" height="13" viewBox="0 0 12 13" fill="none" xmlns="http://www.w3.org/2000/svg">
<path d="M10.6875 2.75H3.84375C3.79219 2.75 3.75 2.79219 3.75 2.84375V3.5C3.75 3.55156 3.79219 3.59375 3.84375 3.59375H10.6875C10.7391 3.59375 10.7812 3.55156 10.7812 3.5V2.84375C10.7812 2.79219 10.7391 2.75 10.6875 2.75ZM10.6875 6.07812H3.84375C3.79219 6.07812 3.75 6.12031 3.75 6.17188V6.82812C3.75 6.87969 3.79219 6.92188 3.84375 6.92188H10.6875C10.7391 6.92188 10.7812 6.87969 10.7812 6.82812V6.17188C10.7812 6.12031 10.7391 6.07812 10.6875 6.07812ZM10.6875 9.40625H3.84375C3.79219 9.40625 3.75 9.44844 3.75 9.5V10.1562C3.75 10.2078 3.79219 10.25 3.84375 10.25H10.6875C10.7391 10.25 10.7812 10.2078 10.7812 10.1562V9.5C10.7812 9.44844 10.7391 9.40625 10.6875 9.40625ZM1.21875 3.17188C1.21875 3.25805 1.23572 3.34339 1.2687 3.42301C1.30168 3.50263 1.35002 3.57498 1.41096 3.63591C1.4719 3.69685 1.54424 3.74519 1.62386 3.77817C1.70348 3.81115 1.78882 3.82812 1.875 3.82812C1.96118 3.82812 2.04652 3.81115 2.12614 3.77817C2.20576 3.74519 2.2781 3.69685 2.33904 3.63591C2.39998 3.57498 2.44832 3.50263 2.4813 3.42301C2.51428 3.34339 2.53125 3.25805 2.53125 3.17188C2.53125 3.0857 2.51428 3.00036 2.4813 2.92074C2.44832 2.84112 2.39998 2.76877 2.33904 2.70784C2.2781 2.6469 2.20576 2.59856 2.12614 2.56558C2.04652 2.5326 1.96118 2.51563 1.875 2.51562C1.78882 2.51563 1.70348 2.5326 1.62386 2.56558C1.54424 2.59856 1.4719 2.6469 1.41096 2.70784C1.35002 2.76877 1.30168 2.84112 1.2687 2.92074C1.23572 3.00036 1.21875 3.0857 1.21875 3.17188ZM1.21875 6.5C1.21875 6.58618 1.23572 6.67152 1.2687 6.75114C1.30168 6.83076 1.35002 6.9031 1.41096 6.96404C1.4719 7.02498 1.54424 7.07332 1.62386 7.1063C1.70348 7.13928 1.78882 7.15625 1.875 7.15625C1.96118 7.15625 2.04652 7.13928 2.12614 7.1063C2.20576 7.07332 2.2781 7.02498 2.33904 6.96404C2.39998 6.9031 2.44832 6.83076 2.4813 6.75114C2.51428 6.67152 2.53125 6.58618 2.53125 6.5C2.53125 6.41382 2.51428 6.32848 2.4813 6.24886C2.44832 6.16924 2.39998 6.0969 2.33904 6.03596C2.2781 5.97502 2.20576 5.92668 2.12614 5.8937C2.04652 5.86072 1.96118 5.84375 1.875 5.84375C1.78882 5.84375 1.70348 5.86072 1.62386 5.8937C1.54424 5.92668 1.4719 5.97502 1.41096 6.03596C1.35002 6.0969 1.30168 6.16924 1.2687 6.24886C1.23572 6.32848 1.21875 6.41382 1.21875 6.5ZM1.21875 9.82812C1.21875 9.91431 1.23572 9.99964 1.2687 10.0793C1.30168 10.1589 1.35002 10.2312 1.41096 10.2922C1.4719 10.3531 1.54424 10.4014 1.62386 10.4344C1.70348 10.4674 1.78882 10.4844 1.875 10.4844C1.96118 10.4844 2.04652 10.4674 2.12614 10.4344C2.20576 10.4014 2.2781 10.3531 2.33904 10.2922C2.39998 10.2312 2.44832 10.1589 2.4813 10.0793C2.51428 9.99964 2.53125 9.91431 2.53125 9.82812C2.53125 9.74194 2.51428 9.65661 2.4813 9.57699C2.44832 9.49737 2.39998 9.42502 2.33904 9.36409C2.2781 9.30315 2.20576 9.25481 2.12614 9.22183C2.04652 9.18885 1.96118 9.17188 1.875 9.17188C1.78882 9.17188 1.70348 9.18885 1.62386 9.22183C1.54424 9.25481 1.4719 9.30315 1.41096 9.36409C1.35002 9.42502 1.30168 9.49737 1.2687 9.57699C1.23572 9.65661 1.21875 9.74194 1.21875 9.82812Z" fill="#FFFDF6"/>
</svg>
