<svg width="64" height="64" viewBox="0 0 64 64" fill="none" xmlns="http://www.w3.org/2000/svg">
<circle cx="32" cy="32" r="32" fill="#47654D"/>
<path d="M32 21C28.145 21 25 24.145 25 28C25 30.41 26.23 32.55 28.094 33.813C24.527 35.343 22 38.883 22 43H24C24 38.57 27.57 35 32 35C36.43 35 40 38.57 40 43H42C42 38.883 39.473 35.344 35.906 33.812C36.8573 33.1698 37.6368 32.3042 38.1762 31.291C38.7156 30.2778 38.9984 29.1478 39 28C39 24.145 35.855 21 32 21ZM32 23C34.773 23 37 25.227 37 28C37 30.773 34.773 33 32 33C29.227 33 27 30.773 27 28C27 25.227 29.227 23 32 23Z" fill="#FFFDF6"/>
</svg>
